<svg width="18" height="18" viewBox="0 0 18 18" fill="none" xmlns="http://www.w3.org/2000/svg">
<path fill-rule="evenodd" clip-rule="evenodd" d="M8.55371 0C13.2778 0 17.1074 3.82963 17.1074 8.55371C17.1074 13.2778 13.2778 17.1074 8.55371 17.1074C3.82963 17.1074 0 13.2778 0 8.55371C0 3.82963 3.82963 0 8.55371 0ZM8.46094 11.2334C8.22266 11.2334 8.02734 11.3096 7.875 11.4619C7.72266 11.6143 7.64648 11.8115 7.64648 12.0537C7.64648 12.292 7.72266 12.4873 7.875 12.6396C8.02734 12.792 8.22266 12.8682 8.46094 12.8682C8.69922 12.8682 8.89258 12.792 9.04102 12.6396C9.19336 12.4873 9.26953 12.292 9.26953 12.0537C9.26953 11.8115 9.19336 11.6143 9.04102 11.4619C8.89258 11.3096 8.69922 11.2334 8.46094 11.2334ZM8.58984 4.24316C8.04297 4.24316 7.58398 4.34473 7.21289 4.54785C6.8418 4.75098 6.55859 5.02441 6.36328 5.36816C6.16797 5.71191 6.05859 6.09277 6.03516 6.51074V6.52246L7.03125 6.5166L7.04297 6.51074C7.0625 6.2334 7.13477 5.99316 7.25977 5.79004C7.38867 5.58691 7.5625 5.43066 7.78125 5.32129C8 5.21191 8.25586 5.15723 8.54883 5.15723C8.8418 5.15723 9.0957 5.21191 9.31055 5.32129C9.52539 5.43066 9.69141 5.5791 9.80859 5.7666C9.92578 5.9541 9.98438 6.16895 9.98438 6.41113V6.42285C9.98438 6.62988 9.95312 6.81348 9.89062 6.97363C9.82812 7.13379 9.72656 7.28223 9.58594 7.41895C9.44922 7.55176 9.26758 7.68848 9.04102 7.8291C8.77539 7.98926 8.55469 8.15723 8.37891 8.33301C8.20312 8.50879 8.07422 8.70215 7.99219 8.91309C7.91016 9.12012 7.86914 9.35254 7.86914 9.61035V10.1494H8.89453V9.76855C8.89453 9.56152 8.92188 9.38184 8.97656 9.22949C9.03516 9.07715 9.13281 8.93457 9.26953 8.80176C9.41016 8.66895 9.60352 8.53027 9.84961 8.38574C10.0996 8.2334 10.3164 8.05957 10.5 7.86426C10.6836 7.66895 10.8242 7.44824 10.9219 7.20215C11.0234 6.95215 11.0742 6.6748 11.0742 6.37012V6.3584C11.0742 5.95605 10.9688 5.59668 10.7578 5.28027C10.5508 4.95996 10.2598 4.70801 9.88477 4.52441C9.51367 4.33691 9.08203 4.24316 8.58984 4.24316Z" fill="black"/>
</svg>
