<svg width="995" height="427" viewBox="0 0 995 427" fill="none" xmlns="http://www.w3.org/2000/svg">
<path d="M994.623 424.047C994.34 424.189 991.15 423.905 985.055 423.196C980.377 412.707 975.77 404.131 971.234 397.469C966.84 390.665 950.681 361.748 922.756 310.718C920.346 305.757 918.858 302.638 918.291 301.362C917.866 299.945 917.44 300.512 917.015 303.063C917.44 307.599 917.582 312.49 917.44 317.735C917.299 322.979 917.511 337.58 918.078 361.535C918.645 385.491 918.929 400.446 918.929 406.399C918.929 409.659 918.929 412.849 918.929 415.967C918.929 418.944 919 421.637 919.141 424.047C917.582 424.472 915.881 424.543 914.038 424.259C912.196 423.976 909.644 423.834 906.384 423.834V408.951C906.384 395.484 906.242 382.656 905.959 370.465C905.817 358.275 905.746 345.518 905.746 332.193C905.746 322.412 905.888 312.773 906.171 303.276C906.455 293.637 906.951 284.282 907.66 275.21C909.077 274.926 911.133 274.997 913.826 275.422C916.519 275.848 917.866 276.202 917.866 276.485C918.858 279.037 919.779 281.163 920.63 282.864C921.48 284.565 922.827 287.188 924.67 290.731C926.654 294.133 928.284 297.323 929.56 300.299C929.844 301.008 937.782 315.041 953.374 342.399C968.966 369.757 977.755 385.42 979.739 389.389C981.866 393.358 983.496 396.122 984.63 397.681C984.63 390.736 984.63 386.058 984.63 383.648C984.63 376.277 984.488 370.182 984.205 365.362C984.063 360.401 983.992 355.369 983.992 350.266C983.283 308.733 982.787 286.479 982.504 283.502C982.22 280.384 982.078 277.052 982.078 273.509C986.189 273.225 990.3 273.509 994.411 274.359V342.824C994.552 348.778 994.623 354.802 994.623 360.897C994.623 366.993 994.623 373.088 994.623 379.183C994.623 383.294 994.552 387.263 994.411 391.09C994.411 394.917 994.411 398.815 994.411 402.784C993.702 407.604 993.773 413.274 994.623 419.794V424.047Z" fill="black"/>
<path d="M869.431 273.938C870.565 274.079 872.478 274.292 875.172 274.575V275.426C875.172 287.616 874.959 299.878 874.534 312.21C874.25 324.542 874.179 336.945 874.321 349.419C874.463 361.751 874.392 374.084 874.108 386.416C873.967 398.748 874.25 411.222 874.959 423.838C873.541 423.98 872.407 424.05 871.557 424.05C870.848 424.192 869.502 424.263 867.517 424.263C865.674 424.263 864.044 424.476 862.627 424.901C862.91 407.608 862.981 387.337 862.839 364.09C862.698 340.702 862.556 322.841 862.414 310.509C862.414 298.035 863.052 285.845 864.328 273.938V273.512C866.596 273.371 867.942 273.441 868.368 273.725C868.793 273.867 869.147 273.938 869.431 273.938Z" fill="black"/>
<path d="M801.189 320.081C797.361 324.333 787.935 333.334 772.91 347.084L843.076 423.204L830.318 423.629C807.497 399.673 792.329 383.585 784.817 375.363C777.446 367 770.996 360.409 765.468 355.589C765.751 359.842 765.609 365.937 765.042 373.875C764.617 381.813 764.617 391.027 765.042 401.516C765.468 411.864 765.68 419.022 765.68 422.991C763.696 423.558 761.64 423.842 759.514 423.842C757.53 423.7 755.616 423.416 753.773 422.991C752.639 398.61 752.427 374.158 753.135 349.636C753.986 324.971 754.34 300.236 754.199 275.43L765.042 275.855C765.326 283.935 765.397 292.44 765.255 301.37C765.113 310.3 765.184 322.774 765.468 338.792C765.468 338.934 768.303 336.311 773.973 330.925C779.784 325.538 787.085 318.663 795.873 310.3C804.803 301.937 811.678 295.416 816.498 290.739C821.317 286.061 825.57 281.454 829.255 276.918H842.863C835.209 285.423 827.271 293.715 819.049 301.795C810.969 309.733 805.016 315.828 801.189 320.081Z" fill="black"/>
<path d="M706.92 276.481C708.338 276.481 709.472 276.552 710.322 276.694V276.907C706.353 289.664 701.675 302.138 696.289 314.328C690.902 326.519 685.303 338.709 679.491 350.9C673.68 362.949 668.435 374.572 663.757 385.77C659.221 396.827 653.906 409.584 647.81 424.043C646.96 423.901 645.046 423.901 642.07 424.043C639.235 424.185 637.392 424.185 636.541 424.043H636.116C647.74 396.402 656.386 375.281 662.056 360.681C655.678 349.624 650.929 341.544 647.81 336.441C644.834 331.197 641.503 325.456 637.817 319.219C634.132 312.84 630.233 305.682 626.123 297.744C622.154 289.806 619.46 282.86 618.043 276.907C620.878 276.907 623.004 276.836 624.422 276.694C625.839 276.41 626.902 276.41 627.611 276.694C634.699 293.279 641.857 307.525 649.086 319.431C656.315 331.338 662.907 341.615 668.86 350.262C678.499 329.141 685.87 312.415 690.973 300.083C696.076 287.75 699.266 280.025 700.541 276.907C702.384 276.623 703.518 276.481 703.943 276.481C704.51 276.34 705.503 276.34 706.92 276.481Z" fill="black"/>
<path d="M609.867 299.017C613.127 304.687 614.97 311.562 615.395 319.641V324.957C614.544 331.761 612.276 338.069 608.591 343.881C604.905 349.692 600.369 354.583 594.983 358.552C589.596 362.521 583.855 365.214 577.76 366.632C571.807 368.049 556.285 368.616 531.195 368.332C531.337 370.317 531.408 372.301 531.408 374.286C531.408 376.129 531.408 378.893 531.408 382.578C531.408 386.122 531.408 390.942 531.408 397.037C531.55 403.132 531.762 411.354 532.046 421.701V421.914C531.904 421.914 531.762 421.985 531.621 422.127C531.621 422.127 531.55 422.127 531.408 422.127C529.424 422.694 527.935 423.048 526.943 423.19C525.951 423.19 524.25 423.048 521.84 422.764C521.415 412.417 521.202 401.218 521.202 389.17C521.202 376.979 521.202 364.505 521.202 351.748C521.202 338.99 521.131 326.162 520.989 313.263C520.989 300.364 520.777 288.031 520.352 276.266C526.163 274.707 532.471 273.573 539.275 272.864C546.221 272.155 553.096 272.084 559.9 272.651C566.845 273.218 573.579 274.494 580.099 276.479C586.62 278.321 592.36 281.156 597.322 284.984C602.425 288.669 606.606 293.347 609.867 299.017ZM593.069 289.449C587.824 286.047 582.084 283.495 575.847 281.794C570.46 280.377 562.522 279.81 552.033 280.093C541.685 280.235 534.314 280.944 529.92 282.22C530.061 284.771 530.061 287.464 529.92 290.299C529.92 293.134 529.991 303.624 530.132 321.768C530.416 339.912 530.699 352.669 530.983 360.04C533.96 359.898 542.465 359.757 556.498 359.615C570.673 359.473 580.524 357.914 586.053 354.937C591.723 351.819 597.038 346.432 601.999 338.778C606.961 331.123 608.024 321.839 605.189 310.924C602.496 300.009 598.456 292.851 593.069 289.449Z" fill="black"/>
<path d="M504.175 299.017C507.435 304.687 509.278 311.562 509.703 319.641V324.957C508.853 331.761 506.585 338.069 502.899 343.881C499.214 349.692 494.678 354.583 489.291 358.552C483.905 362.521 478.164 365.214 472.069 366.632C466.115 368.049 450.594 368.616 425.504 368.332C425.646 370.317 425.717 372.301 425.717 374.286C425.717 376.129 425.717 378.893 425.717 382.578C425.717 386.122 425.717 390.942 425.717 397.037C425.858 403.132 426.071 411.354 426.355 421.701V421.914C426.213 421.914 426.071 421.985 425.929 422.127C425.929 422.127 425.858 422.127 425.717 422.127C423.732 422.694 422.244 423.048 421.252 423.19C420.259 423.19 418.558 423.048 416.149 422.764C415.723 412.417 415.511 401.218 415.511 389.17C415.511 376.979 415.511 364.505 415.511 351.748C415.511 338.99 415.44 326.162 415.298 313.263C415.298 300.364 415.085 288.031 414.66 276.266C420.472 274.707 426.78 273.573 433.584 272.864C440.529 272.155 447.404 272.084 454.208 272.651C461.154 273.218 467.887 274.494 474.408 276.479C480.928 278.321 486.669 281.156 491.63 284.984C496.733 288.669 500.915 293.347 504.175 299.017ZM487.378 289.449C482.133 286.047 476.392 283.495 470.155 281.794C464.769 280.377 456.831 279.81 446.341 280.093C435.994 280.235 428.623 280.944 424.228 282.22C424.37 284.771 424.37 287.464 424.228 290.299C424.228 293.134 424.299 303.624 424.441 321.768C424.724 339.912 425.008 352.669 425.291 360.04C428.268 359.898 436.773 359.757 450.806 359.615C464.981 359.473 474.833 357.914 480.361 354.937C486.031 351.819 491.347 346.432 496.308 338.778C501.269 331.123 502.332 321.839 499.497 310.924C496.804 300.009 492.764 292.851 487.378 289.449Z" fill="black"/>
<path d="M389.242 339.633C390.234 343.744 391.014 347.004 391.581 349.414L407.527 423.832V424.045C401.007 424.895 397.959 424.895 398.385 424.045H398.172C397.321 421.777 396.471 419.084 395.62 415.965C394.912 412.847 394.132 409.657 393.282 406.397C392.573 403.137 391.014 397.042 388.604 388.111L332.258 387.473C330.699 396.12 329.565 402.145 328.856 405.547C328.289 408.807 327.226 414.76 325.667 423.407C325.525 423.407 325.171 423.478 324.604 423.62C324.179 423.62 321.131 423.62 315.461 423.62C315.744 422.627 316.241 419.863 316.949 415.327C317.658 410.791 318.65 404.909 319.926 397.679C321.202 390.45 322.69 382.158 324.391 372.802C326.234 363.305 328.36 353.241 330.77 342.61C333.18 331.978 335.802 320.922 338.637 309.44C341.472 297.958 345.228 286.548 349.906 275.208C350.898 275.066 351.962 274.995 353.095 274.995C354.229 274.995 355.364 274.995 356.497 274.995C357.773 274.995 359.829 274.995 362.664 274.995C365.64 274.853 369.468 274.57 374.145 274.145C374.571 275.987 375.208 278.822 376.059 282.65C377.051 286.335 378.043 290.587 379.036 295.407C380.17 300.085 381.304 305.117 382.438 310.503C383.713 315.89 384.918 321.064 386.052 326.025C387.186 330.986 388.249 335.522 389.242 339.633ZM347.993 379.181C356.214 379.323 369.68 379.181 388.391 378.756C375.492 315.535 368.404 283.925 367.129 283.925C365.995 283.925 364.081 283.925 361.388 283.925C358.836 283.925 356.852 283.996 355.434 284.138C354.159 284.138 351.82 291.509 348.418 306.251C345.158 320.851 340.125 345.019 333.321 378.756C335.022 378.898 339.913 379.039 347.993 379.181Z" fill="black"/>
<path d="M272.385 384.921C278.622 389.74 292.584 402.569 314.272 423.406H314.485C307.397 423.406 302.932 423.548 301.089 423.831L265.793 391.725L225.182 360.044C225.182 364.438 225.111 370.675 224.97 378.755C224.828 386.693 224.828 393.213 224.97 398.316C225.253 403.277 225.537 408.026 225.82 412.562C226.104 417.098 226.316 420.713 226.458 423.406C222.489 424.256 219.441 424.54 217.315 424.256C215.189 423.973 213.771 423.902 213.063 424.044C213.346 424.044 213.559 422.13 213.7 418.303C213.842 414.334 213.913 409.16 213.913 402.781C213.913 396.402 213.913 389.102 213.913 380.881C213.913 372.518 213.842 363.942 213.7 355.153C213.7 346.223 213.559 337.435 213.275 328.788C213.133 319.999 212.992 311.991 212.85 304.761C212.708 297.39 212.496 291.153 212.212 286.05C212.07 280.806 211.858 277.262 211.574 275.419C219.512 274.285 228.23 273.222 237.727 272.23C247.224 271.237 257.147 271.308 267.494 272.442C275.858 272.868 283.37 275.277 290.033 279.672C296.695 284.066 301.869 289.523 305.554 296.044C309.24 302.564 311.153 309.793 311.295 317.731C311.579 325.528 309.523 333.111 305.129 340.482C302.436 345.585 298.821 349.838 294.285 353.24C289.891 356.642 271.889 358.13 240.279 357.705C255.588 370.888 266.29 379.96 272.385 384.921ZM263.242 280.097C254.028 279.246 240.137 279.742 221.568 281.585C221.709 283.428 221.993 289.594 222.418 300.084C222.985 310.573 223.269 317.023 223.269 319.432C223.269 321.842 223.269 326.52 223.269 333.466C223.41 340.27 223.623 344.451 223.906 346.01H224.119C258.423 348.845 279.968 348.349 288.757 344.522C296.128 341.545 300.593 334.6 302.152 323.685C303.853 312.77 302.648 304.336 298.538 298.383C294.569 292.429 289.962 288.106 284.717 285.412C279.614 282.719 272.456 280.947 263.242 280.097Z" fill="black"/>
<path d="M116.892 347.501C116.751 362.527 116.751 374.079 116.892 382.159C117.176 397.468 121.499 407.532 129.862 412.352C138.226 417.171 147.581 419.085 157.929 418.093C167.851 416.817 176.215 411.856 183.019 403.209C189.823 394.562 192.232 381.45 190.248 363.873C193.508 363.731 196.627 363.448 199.603 363.023C201.021 371.386 201.163 379.253 200.029 386.624C198.895 393.853 196.414 400.374 192.587 406.186C188.759 411.997 183.727 416.817 177.49 420.644C171.395 424.329 164.449 426.243 156.653 426.385C151.55 427.094 146.305 427.094 140.919 426.385C135.532 425.818 130.5 424.471 125.823 422.345C121.145 420.077 117.176 416.959 113.916 412.99C110.797 409.021 108.954 404.059 108.387 398.106C108.104 393.003 107.891 387.687 107.749 382.159C107.608 376.631 107.466 370.465 107.324 363.661C107.324 356.715 107.324 348.919 107.324 340.272C107.466 331.483 107.608 321.348 107.749 309.867C108.458 302.496 109.238 297.747 110.088 295.621C111.364 291.935 112.923 288.533 114.766 285.415C116.751 282.296 119.089 279.532 121.783 277.122C123.342 275.988 125.043 275.067 126.886 274.358C128.728 273.508 130.642 272.799 132.627 272.232C139.147 270.106 145.597 269.255 151.975 269.681C158.354 270.106 164.308 271.594 169.836 274.146C175.506 276.555 180.609 279.816 185.145 283.926C189.681 288.037 193.295 292.786 195.989 298.172C198.682 303.417 200.312 309.158 200.879 315.395C201.446 321.632 201.446 328.081 200.879 334.744C193.65 335.736 190.46 335.878 191.311 335.169C191.594 333.043 191.524 328.648 191.098 321.986C190.673 315.182 190.035 310.008 189.185 306.465C188.476 302.779 185.428 297.463 180.042 290.518C174.655 283.572 163.244 279.887 145.809 279.461C124.83 279.036 115.191 301.716 116.892 347.501Z" fill="black"/>
<path d="M93.4254 296.896C97.1109 303.842 97.9614 312.631 95.9769 323.262H95.7643C91.37 323.829 87.6845 323.9 84.7078 323.474C87.5428 305.614 83.0777 294.203 71.3124 289.242C59.689 284.139 48.6325 283.147 38.143 286.265C27.7953 289.384 20.6369 294.203 16.6679 300.724C12.8407 307.244 11.2106 314.261 11.7776 321.773C12.4863 329.144 15.3922 335.027 20.4952 339.421C25.7399 343.674 33.1818 345.871 42.8207 346.013C52.4597 346.013 61.1065 346.651 68.7609 347.926C76.5572 349.202 82.4398 351.257 86.4088 354.092C90.3778 356.927 93.0001 360.046 94.2759 363.448C95.6934 366.708 96.3313 370.819 96.1895 375.78C96.1895 380.6 95.7643 385.065 94.9138 389.175C94.205 393.144 93.0001 396.972 91.2992 400.657C89.5982 405.051 87.3302 408.808 84.4952 411.926C81.6602 415.045 78.3999 417.596 74.7144 419.581C71.1707 421.565 67.2726 423.054 63.0201 424.046C58.9093 424.896 54.6568 425.251 50.2626 425.109C44.0256 424.967 37.7886 423.904 31.5516 421.92C25.4564 419.793 19.999 416.888 15.1795 413.202C10.3601 409.517 6.53281 405.051 3.69782 399.807C0.862825 394.42 -0.342048 387.9 0.0832009 380.245C4.05219 379.962 7.66681 379.962 10.9271 380.245C10.5018 387.616 12.6281 394.278 17.3058 400.232C22.1253 406.044 30.7011 410.509 43.0334 413.627C55.5073 416.604 65.9968 414.336 74.5018 406.823C83.1485 399.169 87.1175 389.459 86.4088 377.694C85.4165 367.488 81.0223 361.038 73.2261 358.345C65.4298 355.652 56.1452 354.659 45.3722 355.368C34.5993 356.077 25.4564 354.305 17.9437 350.053C10.4309 345.658 5.68232 339.847 3.69782 332.617C1.85507 325.388 1.7842 318.23 3.48519 311.142C5.18619 304.055 8.37556 297.605 13.0533 291.793C17.8728 285.982 23.6845 281.658 30.4885 278.823C33.8905 277.406 37.6469 276.484 41.7576 276.059C45.8684 275.492 49.9791 275.35 54.0898 275.634C58.3423 275.776 62.4531 276.343 66.4221 277.335C70.5328 278.327 74.2892 279.603 77.6912 281.162C84.4952 284.706 89.7399 289.951 93.4254 296.896Z" fill="black"/>
<g clip-path="url(#clip0_211_45)">
<path d="M436.416 265.737C444.756 267.815 456.887 256.965 461.171 251.306C457.167 246.935 446.428 233.856 446.748 230.95C438.509 208.693 489.799 211.344 480.589 240.172C480.095 242.8 473.032 248.906 469.562 251.63C464.614 256.214 456.799 264.961 465.121 263.275C475.524 261.168 482.718 263.133 482.324 266.058C482.278 266.4 478.9 265.868 477.524 266.313C475.202 267.734 469.232 270.37 463.926 269.542C457.293 268.507 443.712 281.508 442.136 280.258C440.876 279.258 434.206 282.559 431.028 284.334C429.899 281.324 439.147 274.112 443.757 270.97C428.356 281.039 422.481 275.534 413.836 281C411.75 275.609 425.973 269.916 430.694 270.006C431.85 270.028 425.617 268.972 416.665 272.414C420.605 265.124 431.512 264.099 436.416 265.737Z" fill="#FFC0C0"/>
<path d="M461.171 251.306C456.887 256.965 444.756 267.815 436.416 265.737C431.512 264.099 420.605 265.124 416.665 272.414C425.617 268.972 431.85 270.028 430.694 270.006C425.973 269.916 411.75 275.609 413.836 281C422.659 275.421 428.596 281.27 444.718 270.33C440.607 272.996 429.814 281.096 431.028 284.334C434.206 282.559 440.876 279.258 442.136 280.258C443.712 281.508 457.293 268.507 463.926 269.542C469.232 270.37 475.202 267.734 477.524 266.313C478.9 265.868 482.278 266.4 482.324 266.058C482.718 263.133 475.524 261.168 465.121 263.275C456.799 264.961 464.614 256.214 469.562 251.63C473.032 248.906 480.095 242.8 480.589 240.172C489.799 211.344 438.509 208.693 446.748 230.95C446.428 233.856 457.167 246.935 461.171 251.306Z" stroke="black" stroke-width="3.35776" stroke-linejoin="round"/>
</g>
<path d="M622.235 142.437C617.396 138.709 582.635 170.677 568.479 185.252C552.251 207.641 559.902 214.959 570.78 212.449C668.447 189.909 670.572 172.071 667.643 168.306C665.3 165.293 630.683 181.835 613.668 190.482C632.008 180.3 671.572 162.914 662.447 154.108C658.006 149.822 633.682 162.866 621.199 170.189C630.125 163.076 648.336 150.819 642.538 143.619C638.752 138.917 613.11 155.265 601.115 163.703C609.414 157.148 628.538 147.291 622.235 142.437Z" fill="#FFC0C0"/>
<path d="M568.479 185.252L567.225 184.034L567.137 184.124L567.064 184.226L568.479 185.252ZM622.235 142.437L623.302 141.052V141.052L622.235 142.437ZM601.115 163.703L600.032 162.332C599.289 162.918 599.148 163.989 599.714 164.748C600.28 165.507 601.347 165.677 602.121 165.133L601.115 163.703ZM642.538 143.619L641.177 144.715V144.715L642.538 143.619ZM621.199 170.189L620.11 168.822C619.393 169.393 619.239 170.422 619.758 171.178C620.277 171.934 621.292 172.16 622.084 171.696L621.199 170.189ZM662.447 154.108L661.233 155.366V155.366L662.447 154.108ZM613.668 190.482L612.819 188.954C611.986 189.416 611.677 190.461 612.124 191.302C612.571 192.143 613.61 192.472 614.46 192.04L613.668 190.482ZM667.643 168.306L666.264 169.379V169.379L667.643 168.306ZM570.78 212.449L570.387 210.745V210.745L570.78 212.449ZM568.479 185.252L569.733 186.469C576.774 179.22 588.962 167.624 599.979 158.316C605.494 153.657 610.669 149.611 614.737 146.971C616.781 145.644 618.468 144.723 619.736 144.243C620.372 144.002 620.818 143.905 621.099 143.888C621.386 143.87 621.324 143.941 621.169 143.821L622.235 142.437L623.302 141.052C622.541 140.466 621.641 140.351 620.88 140.399C620.114 140.447 619.303 140.669 618.498 140.974C616.882 141.586 614.95 142.665 612.833 144.038C608.58 146.799 603.272 150.957 597.723 155.646C586.611 165.033 574.34 176.709 567.225 184.034L568.479 185.252ZM622.235 142.437L621.169 143.821C621.653 144.194 621.722 144.463 621.736 144.625C621.756 144.859 621.684 145.291 621.267 145.98C620.413 147.388 618.588 149.111 616.081 151.049C613.621 152.952 610.7 154.917 607.828 156.846C604.987 158.755 602.171 160.642 600.032 162.332L601.115 163.703L602.199 165.075C604.209 163.487 606.896 161.684 609.777 159.748C612.627 157.834 615.65 155.802 618.22 153.815C620.744 151.863 623.037 149.802 624.256 147.792C624.875 146.771 625.327 145.586 625.219 144.326C625.105 142.994 624.393 141.893 623.302 141.052L622.235 142.437ZM601.115 163.703L602.121 165.133C608.089 160.934 617.438 154.779 625.739 150.27C629.903 148.008 633.724 146.204 636.69 145.251C638.183 144.772 639.351 144.544 640.185 144.534C640.595 144.529 640.859 144.578 641.015 144.631C641.089 144.656 641.13 144.68 641.15 144.693C641.169 144.706 641.175 144.713 641.177 144.715L642.538 143.619L643.9 142.523C642.931 141.32 641.447 141.022 640.142 141.038C638.802 141.055 637.252 141.399 635.621 141.923C632.34 142.977 628.291 144.905 624.071 147.198C615.606 151.796 606.136 158.034 600.11 162.274L601.115 163.703ZM642.538 143.619L641.177 144.715C642.072 145.827 642.179 147.179 641.314 149.085C640.418 151.058 638.594 153.305 636.166 155.689C631.307 160.458 624.689 165.173 620.11 168.822L621.199 170.189L622.288 171.556C626.636 168.091 633.585 163.121 638.615 158.184C641.13 155.715 643.329 153.103 644.497 150.53C645.695 147.891 645.903 145.011 643.9 142.523L642.538 143.619ZM621.199 170.189L622.084 171.696C628.303 168.048 637.439 162.994 645.548 159.392C649.613 157.587 653.344 156.181 656.287 155.483C657.763 155.134 658.956 154.983 659.85 155.015C660.776 155.047 661.127 155.263 661.233 155.366L662.447 154.108L663.661 152.85C662.656 151.881 661.277 151.567 659.973 151.521C658.639 151.474 657.105 151.697 655.481 152.082C652.224 152.854 648.261 154.362 644.129 156.198C635.845 159.877 626.579 165.007 620.315 168.681L621.199 170.189ZM662.447 154.108L661.233 155.366C661.98 156.086 662.136 156.741 662.004 157.468C661.844 158.34 661.223 159.49 659.952 160.908C657.425 163.729 652.956 166.935 647.448 170.286C636.409 177.004 622.176 183.759 612.819 188.954L613.668 190.482L614.516 192.01C623.5 187.023 638.219 179.995 649.265 173.272C654.801 169.904 659.658 166.475 662.556 163.241C663.997 161.632 665.113 159.9 665.443 158.096C665.799 156.146 665.195 154.331 663.661 152.85L662.447 154.108ZM613.668 190.482L614.46 192.04C622.95 187.725 635.826 181.444 646.858 176.623C652.381 174.209 657.399 172.18 661.16 170.944C663.051 170.323 664.551 169.926 665.609 169.767C666.145 169.687 666.476 169.682 666.648 169.701C666.878 169.726 666.556 169.755 666.264 169.379L667.643 168.306L669.023 167.233C668.437 166.48 667.571 166.285 667.028 166.226C666.427 166.16 665.758 166.21 665.09 166.311C663.739 166.513 662.018 166.983 660.068 167.623C656.148 168.912 651.009 170.994 645.458 173.42C634.341 178.278 621.401 184.591 612.876 188.924L613.668 190.482ZM667.643 168.306L666.264 169.379C666.485 169.663 667.003 170.725 665.924 172.823C664.817 174.975 662.075 178.057 656.008 181.856C643.889 189.443 619.175 199.486 570.387 210.745L570.78 212.449L571.173 214.152C620.052 202.871 645.234 192.726 657.863 184.818C664.169 180.87 667.513 177.377 669.033 174.421C670.581 171.411 670.267 168.831 669.023 167.233L667.643 168.306ZM570.78 212.449L570.387 210.745C567.861 211.328 565.698 211.295 564.116 210.753C562.609 210.237 561.593 209.261 561.144 207.703C560.666 206.046 560.774 203.52 562.103 199.903C563.424 196.308 565.893 191.797 569.894 186.277L568.479 185.252L567.064 184.226C562.95 189.901 560.291 194.7 558.822 198.697C557.362 202.67 557.019 206.015 557.785 208.672C558.58 211.428 560.502 213.211 562.983 214.06C565.387 214.884 568.26 214.824 571.173 214.152L570.78 212.449Z" fill="black"/>
<g clip-path="url(#clip1_211_45)">
<path d="M544.117 184.293C430.394 284.063 351.438 178.667 395.507 132.721C428.005 100.223 457.608 131.305 484.52 153.096C527.408 187.823 546.369 182.317 544.117 184.293Z" fill="#FFC0C0" stroke="black" stroke-width="3.43517"/>
</g>
<path d="M391.32 162.311C390.422 149.424 396.457 132.077 400.567 124.886C410.294 92.7444 463.461 97.4631 468.745 106.709C474.028 115.956 519.448 135.453 546.306 149.543C567.793 160.814 587.842 175.961 595.18 182.125C594.006 187.995 587.255 203.083 569.642 216.468C547.627 233.2 516.366 239.804 489.948 241.565C411.547 238.446 391.529 187.43 391.32 162.311Z" fill="#FFC0C0" stroke="black" stroke-width="3.31454"/>
<g clip-path="url(#clip2_211_45)">
<path d="M394.644 22.3428C400.895 22.7375 405.873 28.8033 405.404 36.2257C404.936 43.6481 399.235 49.0402 392.984 48.646C386.733 48.2516 381.755 42.1857 382.223 34.7631C382.691 27.3405 388.393 21.9484 394.644 22.3428Z" fill="#FFC0C0" stroke="black" stroke-width="2.91995"/>
<ellipse cx="389.463" cy="36.8034" rx="4.00977" ry="4.52214" fill="black"/>
</g>
<path d="M416.258 156.828C409.275 156.246 397.102 144.462 391.889 138.642C388.979 132.823 397.178 111.98 399.529 102.328C402.551 89.9229 400.159 79.5548 399.068 75.1901C398.238 71.8686 391.015 56.9524 386.363 47.885C395.432 40.5526 389.862 26.9014 388.802 22.6203C387.923 19.0729 395.318 12.7977 398.93 10.1429C407.926 3.66319 416.246 2.33155 427.534 4.06494C443.363 6.4958 462.264 22.7586 460.765 50.8867C458.293 97.2714 483.161 110.383 482.456 115.364C482.129 117.669 457.48 138.157 444.992 148.099L439.537 147.371C434.687 150.766 423.242 157.41 416.258 156.828Z" fill="#FFC0C0" stroke="black" stroke-width="3.31454"/>
<g clip-path="url(#clip3_211_45)">
<path d="M428.468 22.0928C434.719 22.4875 439.697 28.5533 439.228 35.9757C438.76 43.3981 433.059 48.7902 426.808 48.396C420.557 48.0016 415.579 41.9357 416.047 34.5131C416.515 27.0905 422.217 21.6984 428.468 22.0928Z" stroke="black" stroke-width="2.91995"/>
<ellipse cx="428.408" cy="36.1315" rx="4.00977" ry="4.52214" fill="black"/>
</g>
<g clip-path="url(#clip4_211_45)">
<path d="M412.43 51.7242C415.753 47.5598 411.679 46.4186 408.326 47.3196C404.447 48.8367 391.43 62.4699 387.754 64.6378C396.863 65.5888 408.276 56.9297 412.43 51.7242Z" fill="#FFC0C0" stroke="black" stroke-width="2.36753" stroke-linecap="round"/>
<path d="M389.059 42.6177C391.815 40.35 392.918 42.0475 394.766 43.5645C399.071 39.9607 401.409 40.3538 403.476 41.3121C406.929 42.9138 408.858 47.3911 408.381 49.3706C408.03 50.8221 384.405 67.2895 383.404 66.839C381.954 66.1865 381.82 59.1216 383.555 56.378C387.339 50.394 383.142 47.4859 389.059 42.6177Z" fill="#FFC0C0" stroke="black" stroke-width="2.36753" stroke-linecap="round"/>
<path d="M393.812 51.0721C394.413 50.605 397.416 50.2012 404.624 52.3234" stroke="black" stroke-width="2.36753" stroke-linecap="round"/>
</g>
<g clip-path="url(#clip5_211_45)">
<path d="M511.75 252.953C504.52 249.701 485.271 237.356 481.303 229.988C475.226 223.623 468.791 210.861 491.673 210.732C520.275 210.57 535.093 221.345 532.289 234.057C526.285 255.107 522.966 254.53 517.402 263.854C511.838 273.179 515.734 273.549 525.224 273.416C534.715 273.284 534.737 283.023 534.737 283.023C534.737 283.023 527.78 280.499 527.247 280.874C526.714 281.249 517.992 277.583 512.118 279.301C510.14 279.88 504.253 284.31 499.272 287.337C496.871 287.765 491.069 291.458 491.071 291.174C491.116 285.121 499.41 280.662 500.461 278.111C497.607 280.128 485.016 285.123 480.262 283.062C478.658 282.367 471.818 286.392 471.832 286.18C472.189 280.636 477.864 278.124 483.586 276.782C480.525 277.148 477.913 277.21 477.558 276.471C476.871 275.042 470.699 275.721 467.698 276.238L467.705 276.219C468.352 274.298 469.609 270.562 488.612 272.079C503.866 273.296 512.35 259.216 511.75 252.953Z" fill="#FFC0C0"/>
<path d="M481.303 229.993C485.271 237.361 504.519 249.705 511.749 252.958C512.35 259.221 503.866 273.301 488.611 272.083C469.543 270.561 468.342 274.328 467.698 276.243C470.698 275.725 476.871 275.047 477.558 276.476C478.245 277.905 487.389 276.335 491.875 275.372C485.288 276.326 472.376 277.73 471.831 286.185C471.818 286.396 478.658 282.372 480.262 283.067C485.016 285.127 497.607 280.133 500.46 278.116C499.409 280.666 491.115 285.125 491.07 291.178C491.068 291.463 496.87 287.77 499.272 287.341C504.252 284.315 510.139 279.885 512.117 279.306C517.991 277.588 526.713 281.254 527.246 280.879C527.779 280.504 534.736 283.027 534.736 283.027C534.736 283.027 534.714 273.289 525.223 273.421C515.733 273.553 511.838 273.183 517.402 263.859C522.965 254.535 527.504 251.592 533.508 230.542" stroke="black" stroke-width="3.24736" stroke-linejoin="round"/>
</g>
<g clip-path="url(#clip6_211_45)">
<path d="M614.825 173.179C515.292 287.111 422.56 191.866 453.534 135.223C461.946 124.237 469.66 119.462 475.175 117.265C484.982 113.199 522.069 132.096 551.626 150.137C598.729 178.887 616.795 170.923 614.825 173.179Z" fill="#FFC0C0" stroke="black" stroke-width="3.43517"/>
<path d="M537.429 143.645C542.744 151.287 544.856 160.029 538.557 167.535C538.307 176.284 538.495 181.159 529.933 187.158C529.058 194.97 526.371 199.783 517.498 203.782C512.414 211.146 506.445 216.015 492.324 219.608" stroke="black" stroke-width="6.58408" stroke-linecap="round"/>
<path d="M555.923 154.359C560.798 162.907 559.475 168.076 552.93 176.223C553.531 185.773 551.194 192.384 542.913 198.528C542.038 206.34 537.103 213.086 528.288 216.759C522.946 221.701 521.201 222.908 515.84 224.897" stroke="black" stroke-width="6.58408" stroke-linecap="round"/>
<path d="M563.438 184.604C575.837 184.08 603.036 181.219 612.64 173.977" stroke="black" stroke-width="3.43517" stroke-linecap="round"/>
<path d="M556.059 201.828C574.952 198.676 592.248 192.85 612.4 175.809" stroke="black" stroke-width="3.43517" stroke-linecap="round"/>
</g>
<defs>
<clipPath id="clip0_211_45">
<rect width="77.8732" height="71.6832" fill="white" transform="translate(408.141 214.215)"/>
</clipPath>
<clipPath id="clip1_211_45">
<rect width="175.122" height="124.198" fill="white" transform="translate(375.699 113.594)"/>
</clipPath>
<clipPath id="clip2_211_45">
<rect width="27.9392" height="30.8638" fill="white" transform="translate(379.844 20.0625)"/>
</clipPath>
<clipPath id="clip3_211_45">
<rect width="27.9392" height="30.8638" fill="white" transform="translate(413.668 19.8125)"/>
</clipPath>
<clipPath id="clip4_211_45">
<rect width="35.0394" height="29.2784" fill="white" transform="translate(380.477 39.1445)"/>
</clipPath>
<clipPath id="clip5_211_45">
<rect width="82.2058" height="91.5805" fill="white" transform="translate(463.727 206.734)"/>
</clipPath>
<clipPath id="clip6_211_45">
<rect width="175.039" height="114.746" fill="white" transform="translate(443.691 114.273)"/>
</clipPath>
</defs>
</svg>
