<svg width="291" height="242" viewBox="0 0 291 242" fill="none" xmlns="http://www.w3.org/2000/svg">
<g clip-path="url(#clip0_171_375)">
<path d="M199.051 130.383C199.051 130.383 180.232 145.359 179.825 149.934" stroke="black" stroke-width="1.25" stroke-miterlimit="1.5" stroke-linecap="round" stroke-linejoin="round"/>
<path d="M189.527 130.957C180.529 134.382 179.578 140.341 172.975 144.437" stroke="black" stroke-width="1.25" stroke-miterlimit="1.5" stroke-linecap="round" stroke-linejoin="round"/>
<path d="M187.525 124.921C186.537 124.781 182.864 126.884 182.487 127.1C179.192 128.987 178.578 130.634 176.639 131.778" stroke="black" stroke-width="1.25" stroke-miterlimit="1.5" stroke-linecap="round" stroke-linejoin="round"/>
<path d="M264.478 69.2865C263.539 69.0131 267.852 67.0662 263.932 62.1079C260.134 57.3029 251.269 60.9003 249.623 65.8107C246.856 74.0687 244.342 73.9164 243.535 73.8673C227.353 75.3858 226.14 62.8709 214.225 56.4499C201.89 49.8017 182.764 43.3408 179.606 47.0126C174.252 52.1222 194.234 56.4666 200.422 61.1948C198.415 61.0396 182.219 52.4088 182.125 58.3395C182.081 61.0933 190.801 68.1243 201.984 68.3378L202.138 68.2866C189.535 66.4655 187.589 65.7232 187.827 68.4395C188.386 71.5484 200.11 75.9351 209.505 75.1159C204.692 75.7944 194.848 75.4858 197.37 79.9147C198.427 81.7711 211.571 81.7412 215.726 80.0269C205.558 84.7789 211.062 87.7239 211.757 87.8061C215.123 88.2001 216.652 88.0258 220.82 86.9263C222.301 86.536 222.053 86.2131 223.222 85.3176C217.906 87.5074 217.812 87.6634 217.551 88.0969C214.343 93.4223 230.667 93.52 234.196 86.4892" stroke="black" stroke-width="1.25" stroke-miterlimit="1.5" stroke-linecap="round" stroke-linejoin="round"/>
<path fill-rule="evenodd" clip-rule="evenodd" d="M258.332 64.3622C258.795 63.7085 262.294 61.7495 262.287 66.2819C262.28 69.9472 255.843 69.3202 258.332 64.3622Z" stroke="black" stroke-width="1.25" stroke-miterlimit="1.5" stroke-linecap="round" stroke-linejoin="round"/>
<path d="M259.888 66.1282C260.123 66.053 259.997 66.3143 259.991 66.3335C259.807 66.3192 259.891 66.1546 259.888 66.1289" stroke="black" stroke-width="1.25" stroke-miterlimit="1.5" stroke-linecap="round" stroke-linejoin="round"/>
<path fill-rule="evenodd" clip-rule="evenodd" d="M261.479 71.757C261.8 71.452 263.869 69.7036 264.296 69.2777C265.511 68.0665 265.595 70.1837 265.64 70.2754C266.125 70.3203 268.056 70.008 269.28 74.4003C268.826 74.1759 265.55 72.8926 263.812 72.8902C263.812 72.8902 261.323 71.6939 261.479 71.757Z" stroke="black" stroke-width="1.25" stroke-miterlimit="1.5" stroke-linecap="round" stroke-linejoin="round"/>
<path d="M261.112 72.2651C261.06 73.6211 260.699 75.2144 262.078 74.9225C262.244 74.8877 262.997 74.7267 264.195 74.8999L264.571 74.8785C264.667 74.8586 264.571 74.8785 264.937 74.8255C265.076 74.7955 265.621 74.7637 267.228 74.3881" stroke="black" stroke-width="1.25" stroke-miterlimit="1.5" stroke-linecap="round" stroke-linejoin="round"/>
<path d="M263.727 76.1152C260.997 79.8064 264.482 80.9654 262.764 87.2221C262.5 88.1826 261.168 93.0372 255.473 97.2942C250.631 100.914 251.058 101.607 243.259 104.575" stroke="black" stroke-width="1.25" stroke-miterlimit="1.5" stroke-linecap="round" stroke-linejoin="round"/>
<path d="M251.267 100.517C243.346 104.984 235.574 105.856 223.739 93.0844" stroke="black" stroke-width="1.25" stroke-miterlimit="1.5" stroke-linecap="round" stroke-linejoin="round"/>
<path d="M234.647 102.422C232.432 106.838 235.396 109.128 232.459 113.076C230.746 115.376 225.75 116.828 225.127 115.845C224.934 115.54 225.192 115.528 228.891 109.241C226.636 111.488 225.953 111.562 224.255 113.064C216.793 119.677 215.033 116.287 215.044 116.213C215.234 114.9 221.088 113.743 222.127 108.59C221.816 109.329 220.259 113.024 214.637 115.241C210.476 116.882 207.278 117.159 205.908 113.026C210.858 111.619 211.19 110.176 213.294 109.394C216.44 108.224 216.161 107.841 218.119 105.177C214.638 110.239 203.814 113.862 201.277 108.873C205.728 107.175 218.377 103.467 222.993 94.2718" stroke="black" stroke-width="1.25" stroke-miterlimit="1.5" stroke-linecap="round" stroke-linejoin="round"/>
<path d="M242.361 104.298C242.45 104.44 243.033 105.359 242.026 106.365C241.087 107.301 238.58 105.861 239.248 103.872" stroke="black" stroke-width="1.25" stroke-miterlimit="1.5" stroke-linecap="round" stroke-linejoin="round"/>
<path d="M240.763 107.425C240.295 108.441 242.74 110.611 242.809 111.022L243.775 112.12C243.388 113.892 243.771 115.099 241.917 115.045" stroke="black" stroke-width="1.25" stroke-miterlimit="1.5" stroke-linecap="round" stroke-linejoin="round"/>
<path d="M242.465 110.611C242.565 111.191 240.516 112.869 240.079 114.2" stroke="black" stroke-width="1.25" stroke-miterlimit="1.5" stroke-linecap="round" stroke-linejoin="round"/>
<path d="M237.808 103.141C238.309 103.277 236.591 107.345 233.979 104.039" stroke="black" stroke-width="1.25" stroke-miterlimit="1.5" stroke-linecap="round" stroke-linejoin="round"/>
<path d="M236.832 105.237C238.512 109.59 234.419 111.23 235.767 114.25" stroke="black" stroke-width="1.25" stroke-miterlimit="1.5" stroke-linecap="round" stroke-linejoin="round"/>
<path d="M238.073 109.28C238.578 109.387 239.12 111.329 239.175 111.521C239.485 112.636 239.167 112.549 238.399 113.238" stroke="black" stroke-width="1.25" stroke-miterlimit="1.5" stroke-linecap="round" stroke-linejoin="round"/>
<path d="M259.563 59.6127C261.982 56.218 262.866 51.278 270.412 40.4179C276.341 31.8839 276.655 32.0743 280.702 22.4626C281.862 19.7092 282.723 16.6951 285.061 17.6647C287.2 18.5517 287.445 21.1967 284.492 31.0724C284.367 33.5051 276.653 43.5761 275.817 44.4097C279.062 39.5269 290.72 25.3125 288.184 37.3321C283.255 48.1821 277.135 49.2313 275.653 51.3511C278.807 48.2085 287.302 43.6926 286.456 48.0253C285.305 53.9217 278.798 59.0116 276.431 59.5987C276.846 59.4148 283.644 56.4188 282.02 60.552C279.696 66.4631 274.574 67.0666 271.949 68.9089C274.786 66.2828 276.611 68.8409 275.981 69.7837C272.297 75.2892 270.397 75.5582 270.243 76.6213C269.985 78.4083 264.177 80.9668 263.633 81.2763" stroke="black" stroke-width="1.25" stroke-miterlimit="1.5" stroke-linecap="round" stroke-linejoin="round"/>
<path d="M256.401 86.1321C256.628 85.9069 256.615 85.8789 256.714 86.1783" stroke="black" stroke-width="1.25" stroke-miterlimit="1.5" stroke-linecap="round" stroke-linejoin="round"/>
<path d="M254.617 86.125L254.662 86.2603" stroke="black" stroke-width="1.25" stroke-miterlimit="1.5" stroke-linecap="round" stroke-linejoin="round"/>
<path d="M252.164 85.1797C251.856 85.411 251.552 85.6386 251.499 85.6785" stroke="black" stroke-width="1.25" stroke-miterlimit="1.5" stroke-linecap="round" stroke-linejoin="round"/>
<path d="M249.941 83.666L249.806 83.7109" stroke="black" stroke-width="1.25" stroke-miterlimit="1.5" stroke-linecap="round" stroke-linejoin="round"/>
<path d="M247.826 82.6556C247.527 82.6254 247.624 82.7286 247.356 82.5955" stroke="black" stroke-width="1.25" stroke-miterlimit="1.5" stroke-linecap="round" stroke-linejoin="round"/>
<path d="M246.957 80.457L246.554 80.6291" stroke="black" stroke-width="1.25" stroke-miterlimit="1.5" stroke-linecap="round" stroke-linejoin="round"/>
<path d="M246.013 78.8992L245.18 79.1574" stroke="black" stroke-width="1.25" stroke-miterlimit="1.5" stroke-linecap="round" stroke-linejoin="round"/>
<path d="M269.561 123.709C267.485 125.729 267.843 127.603 263.168 139.94L262.834 140.586C262.757 140.852 256.26 158.493 255.687 160.049C250.482 158.142 250.195 159.002 245.472 156.236C241.299 153.792 223.749 149.994 222.783 148.626C222.999 148.137 227.821 138.411 231.605 127.164C235.93 114.308 236.403 111.801 236.661 110.427C239.554 112.048 239.221 112.601 242.152 113.445C244.871 114.226 250.126 116.45 250.809 116.738L251.167 116.923C256.79 118.627 262.73 121.163 264.969 121.516C266.998 121.834 269.752 123.42 270.14 123.644" stroke="black" stroke-width="1.25" stroke-miterlimit="1.5" stroke-linecap="round" stroke-linejoin="round"/>
<path fill-rule="evenodd" clip-rule="evenodd" d="M235.454 144.761C233.28 141.208 237.254 133.932 243.155 135.162C247.449 136.056 240.125 124.629 247.794 124.381C256.373 124.105 255.614 130.877 249.772 136.804C259.37 141.831 250.746 150.571 250.746 150.571" fill="black" stroke="black" stroke-width="1.25" stroke-miterlimit="1.5" stroke-linecap="round" stroke-linejoin="round"/>
<path fill-rule="evenodd" clip-rule="evenodd" d="M32.9066 164.991C24.7852 156.531 22.0738 157.635 21.6372 150.413C20.9131 138.437 51.5752 134.266 60.9112 146.115C71.5237 157.46 68.8202 190.588 68.4325 194.401C66.7139 211.252 67.4999 212.131 72.081 219.069C82.2028 234.4 64.9163 237.94 60.1671 229.212C58.4268 226.016 57.3105 217.408 50.0756 221.581C47.6711 222.966 28.2299 233.059 23.5024 230.921C18.5472 228.68 25.8905 213.544 10.9382 220.307C-3.14936 226.679 3.73623 213.476 6.30328 211.418C25.056 196.384 31.6387 189.571 34.7397 171.343C34.7858 171.078 35.0874 167.899 35.4642 167.531" fill="#D9B3B3"/>
<path d="M33.1277 168.234C25.1686 159.775 17.7984 158.13 19.2605 148.979C21.2518 136.516 43.9132 132.155 58.0381 147.564C68.4385 158.909 65.2108 191.162 64.8309 194.974C63.1467 211.826 63.8799 212.095 68.3694 219.033C78.289 234.365 62.5516 237.243 57.8973 228.516C56.1918 225.319 56.2131 217.409 49.1228 221.581C46.7664 222.966 27.7136 233.059 23.0806 230.921C18.2244 228.68 25.421 213.544 10.7675 220.307C-3.03858 226.679 1.59974 212.742 4.11549 210.684C22.4935 195.649 29.2411 189.851 32.2802 171.623C32.3254 171.357 32.761 168.736 33.1303 168.368" stroke="black" stroke-width="1.25" stroke-miterlimit="1.5" stroke-linecap="round" stroke-linejoin="round"/>
<path d="M51.4205 177.361C59.5362 195.623 58.6729 196.516 58.8854 198.229C58.9545 198.761 53.4049 202.254 53.567 195.135C53.644 195.517 54.9882 202.205 51.386 199.503C50.666 198.962 50.2915 195.606 50.2543 195.257C50.326 195.699 52.515 202.048 47.1408 199.361C44.7021 198.142 47.7571 193.106 48.0387 192.643C45.1165 187.798 41.82 188.391 39.716 183.128C37.0727 176.524 42.7309 171.098 43.1772 170.207" stroke="black" stroke-width="1.25" stroke-miterlimit="1.5" stroke-linecap="round" stroke-linejoin="round"/>
<path d="M12.6953 123.023C12.8759 125.154 14.8277 129.03 16.3913 131.809" stroke="black" stroke-width="1.25" stroke-miterlimit="1.5" stroke-linecap="round" stroke-linejoin="round"/>
<path d="M18.8388 134.75L18.3359 134.756" stroke="black" stroke-width="1.25" stroke-miterlimit="1.5" stroke-linecap="round" stroke-linejoin="round"/>
<path d="M17.4375 121.914C17.7592 122.41 17.6586 124.231 20.9196 130.276" stroke="black" stroke-width="1.25" stroke-miterlimit="1.5" stroke-linecap="round" stroke-linejoin="round"/>
<path d="M22.6862 133.95L22.4844 133.838" stroke="black" stroke-width="1.25" stroke-miterlimit="1.5" stroke-linecap="round" stroke-linejoin="round"/>
<path d="M88.7477 196.402C88.4607 196.688 88.0171 195.994 85.775 197.676C83.0307 199.734 83.3522 201.137 82.89 202.788C85.0046 202.596 84.8983 202.656 86.9518 202.325C86.1814 204.318 86.285 204.277 85.775 206.309C85.249 208.412 88.923 205.439 89.1435 205.262C89.4915 208.127 89.5366 210.635 91.2953 208.29C92.7112 206.401 94.4805 190.552 97.5222 199.94C99.3951 205.725 86.8535 216.156 83.7401 220.582C80.9162 224.593 79.8535 232.36 80.964 232.915C88.3943 236.63 91.5583 233.144 108.279 238.717C119.566 242.48 132.185 225.958 124.978 211.545C118.063 197.715 115.898 193.26 98.2289 192.156C91.0934 191.71 88.8539 196.189 88.466 196.968" stroke="black" stroke-width="1.25" stroke-miterlimit="1.5" stroke-linecap="round" stroke-linejoin="round"/>
<path d="M109.605 232.929C111.38 233.659 116.975 232.407 117.451 229.908" stroke="black" stroke-width="1.25" stroke-miterlimit="1.5" stroke-linecap="round" stroke-linejoin="round"/>
<path d="M93.7109 195.461C96.851 193.638 96.9466 194.276 99.3641 194.845" stroke="black" stroke-width="1.25" stroke-miterlimit="1.5" stroke-linecap="round" stroke-linejoin="round"/>
<path d="M173.566 11.1791L174.523 1.36133L175.714 1.47735L180.554 10.0949L179.779 9.58667L180.405 9.64767L181.15 2.0071L182.361 2.12512L181.404 11.9429L180.213 11.8268L175.37 3.23655L176.145 3.74474L175.519 3.68375L174.777 11.2971L173.566 11.1791Z" fill="black"/>
<path d="M186.202 12.5409C185.648 12.487 185.194 12.3373 184.837 12.092C184.482 11.8421 184.228 11.5061 184.077 11.0838C183.931 10.6575 183.886 10.1563 183.942 9.58023L184.405 4.83124L185.589 4.9466L185.154 9.40984C185.09 10.0675 185.169 10.5698 185.392 10.9166C185.619 11.2638 186.025 11.4659 186.61 11.523C186.932 11.5543 187.22 11.5343 187.474 11.4629C187.733 11.392 187.955 11.2763 188.14 11.1157C188.326 10.9506 188.471 10.7451 188.578 10.499C188.689 10.2489 188.761 9.9628 188.792 9.64075L189.215 5.29999L190.399 5.41535L189.684 12.7498L188.5 12.6344L188.607 11.539L188.498 11.5284C188.355 11.7754 188.172 11.982 187.95 12.1481C187.728 12.3096 187.47 12.4241 187.175 12.4915C186.884 12.5593 186.56 12.5758 186.202 12.5409Z" fill="black"/>
<path d="M192.125 9.55343L192.232 8.45123L196.804 8.89677L196.697 9.99897L192.125 9.55343Z" fill="black"/>
<path d="M200.911 13.9743C200.358 13.9204 199.903 13.7708 199.547 13.5254C199.191 13.2756 198.938 12.9395 198.787 12.5172C198.641 12.0909 198.595 11.5897 198.652 11.0137L199.114 6.26467L200.298 6.38003L199.863 10.8433C199.799 11.501 199.878 12.0032 200.101 12.35C200.328 12.6972 200.734 12.8994 201.32 12.9564C201.642 12.9878 201.93 12.9678 202.184 12.8964C202.443 12.8254 202.665 12.7097 202.85 12.5491C203.035 12.3841 203.181 12.1785 203.287 11.9325C203.399 11.6823 203.47 11.3962 203.502 11.0742L203.925 6.73342L205.108 6.84878L204.394 14.1832L203.21 14.0678L203.317 12.9724L203.208 12.9618C203.065 13.2089 202.882 13.4154 202.66 13.5815C202.438 13.743 202.18 13.8575 201.885 13.9249C201.594 13.9928 201.27 14.0092 200.911 13.9743Z" fill="black"/>
<path d="M206.673 14.4053L207.671 4.1589L208.855 4.27426L208.464 8.28845L208.573 8.29906C208.797 7.9271 209.094 7.65155 209.464 7.4724C209.835 7.28872 210.29 7.22317 210.829 7.27577C211.378 7.32926 211.833 7.48115 212.193 7.73146C212.554 7.97724 212.814 8.3117 212.974 8.73483C213.135 9.15797 213.186 9.65982 213.13 10.2404L212.667 14.9894L211.483 14.874L211.918 10.4108C211.983 9.74857 211.89 9.245 211.64 8.90009C211.394 8.55109 210.979 8.34808 210.394 8.29106C210.004 8.25304 209.658 8.30403 209.356 8.44401C209.054 8.58398 208.808 8.80046 208.619 9.09342C208.435 9.38683 208.322 9.74898 208.28 10.1799L207.857 14.5206L206.673 14.4053Z" fill="black"/>
<path d="M215.625 11.9809L216.149 5.41082L217.509 5.54342L216.755 12.0909L215.625 11.9809ZM215.866 15.4248C215.59 15.3978 215.372 15.2873 215.212 15.0932C215.052 14.899 214.986 14.6636 215.013 14.3869C215.04 14.1057 215.151 13.8853 215.345 13.7256C215.539 13.566 215.775 13.4996 216.051 13.5266C216.328 13.5535 216.544 13.6639 216.699 13.8576C216.859 14.0517 216.925 14.2894 216.898 14.5706C216.871 14.8473 216.76 15.0654 216.566 15.2251C216.376 15.3852 216.143 15.4518 215.866 15.4248Z" fill="black"/>
<path d="M225.771 16.2664L226.62 7.5508L223.457 7.2425L223.564 6.1403L231.116 6.87624L231.009 7.97844L227.845 7.67014L226.996 16.3857L225.771 16.2664Z" fill="black"/>
<path d="M231.969 16.8704L232.968 6.62397L234.152 6.73933L233.76 10.7535L233.869 10.7641C234.093 10.3922 234.39 10.1166 234.76 9.93747C235.131 9.75379 235.586 9.68824 236.126 9.74084C236.674 9.79433 237.129 9.94622 237.489 10.1965C237.85 10.4423 238.11 10.7768 238.271 11.1999C238.431 11.623 238.483 12.1249 238.426 12.7055L237.963 17.4545L236.779 17.3391L237.214 12.8759C237.279 12.2136 237.186 11.7101 236.936 11.3652C236.69 11.0162 236.275 10.8131 235.69 10.7561C235.3 10.7181 234.954 10.7691 234.652 10.9091C234.35 11.0491 234.104 11.2655 233.915 11.5585C233.731 11.8519 233.618 12.2141 233.576 12.645L233.153 16.9857L231.969 16.8704Z" fill="black"/>
<path d="M242.108 17.9888C241.645 17.9438 241.236 17.8146 240.882 17.6015C240.532 17.3888 240.264 17.1086 240.078 16.7608C239.896 16.4134 239.827 16.0175 239.871 15.573L239.872 15.5594C239.914 15.1239 240.055 14.7622 240.294 14.474C240.533 14.1814 240.86 13.9661 241.277 13.8281C241.693 13.6901 242.187 13.6328 242.757 13.6563L245.467 13.7556L245.375 14.7013L242.807 14.616C242.246 14.5934 241.827 14.6692 241.549 14.8436C241.275 15.0185 241.121 15.2873 241.086 15.6502L241.084 15.6638C241.048 16.0357 241.16 16.3397 241.421 16.5757C241.683 16.8073 242.026 16.9438 242.453 16.9853C242.856 17.0247 243.223 16.9802 243.551 16.852C243.88 16.7192 244.146 16.5231 244.35 16.2636C244.558 16.0046 244.68 15.7005 244.714 15.3512L244.936 13.0652C244.981 12.6116 244.876 12.2534 244.622 11.9906C244.374 11.7237 243.975 11.5635 243.426 11.51C242.986 11.4671 242.618 11.5113 242.321 11.6427C242.025 11.7695 241.815 11.9711 241.692 12.2476L241.683 12.2674L240.499 12.152L240.51 12.1118C240.611 11.7325 240.803 11.4123 241.084 11.1513C241.371 10.8862 241.727 10.6942 242.15 10.5752C242.574 10.4517 243.047 10.4153 243.569 10.4662C244.168 10.5245 244.664 10.6713 245.058 10.9066C245.456 11.1423 245.744 11.4542 245.921 11.8424C246.103 12.2265 246.17 12.6725 246.12 13.1805L245.631 18.2017L244.447 18.0863L244.553 17.0045L244.444 16.9939C244.264 17.2374 244.055 17.4391 243.815 17.5988C243.579 17.7591 243.319 17.8733 243.033 17.9416C242.747 18.0054 242.439 18.0211 242.108 17.9888Z" fill="black"/>
<path d="M250.395 18.7209C249.642 18.6475 249.11 18.4423 248.8 18.1052C248.494 17.7686 248.375 17.2511 248.443 16.5526L248.877 12.1029L247.72 11.9902L247.815 11.0105L248.972 11.1232L249.157 9.22497L250.382 9.34431L250.197 11.2425L251.802 11.399L251.707 12.3787L250.101 12.2223L249.697 16.3725C249.655 16.8034 249.706 17.1221 249.851 17.3285C249.996 17.5304 250.259 17.6499 250.64 17.687C250.744 17.6972 250.833 17.7035 250.906 17.7061C250.984 17.7091 251.077 17.7113 251.187 17.7129L251.089 18.7198C250.974 18.7269 250.859 18.7317 250.744 18.7343C250.629 18.7368 250.513 18.7324 250.395 18.7209Z" fill="black"/>
<path d="M171.504 31.0729L172.219 23.7385L173.402 23.8538L172.688 31.1882L171.504 31.0729ZM172.955 22.3816C172.733 22.36 172.548 22.2618 172.4 22.0871C172.257 21.9084 172.197 21.7079 172.218 21.4856C172.24 21.2588 172.339 21.0738 172.513 20.9305C172.692 20.7877 172.892 20.7271 173.114 20.7487C173.341 20.7708 173.526 20.869 173.669 21.0432C173.813 21.2174 173.873 21.418 173.851 21.6447C173.83 21.867 173.731 22.052 173.557 22.1999C173.383 22.3431 173.182 22.4037 172.955 22.3816Z" fill="black"/>
<path d="M174.919 31.4057L175.634 24.0713L176.818 24.1867L176.711 25.2889L176.819 25.2995C177.043 24.9275 177.34 24.652 177.71 24.4728C178.081 24.2891 178.536 24.2236 179.076 24.2762C179.901 24.3566 180.511 24.6541 180.905 25.1687C181.304 25.6792 181.461 26.3699 181.376 27.2408L180.913 31.9898L179.73 31.8744L180.165 27.4112C180.229 26.749 180.136 26.2454 179.886 25.9005C179.641 25.5515 179.225 25.3485 178.64 25.2915C178.25 25.2534 177.904 25.3044 177.602 25.4444C177.3 25.5844 177.054 25.8009 176.866 26.0938C176.681 26.3872 176.568 26.7494 176.526 27.1803L176.103 31.521L174.919 31.4057Z" fill="black"/>
<path d="M183.546 32.2464L184.166 25.8917L182.948 25.773L183.043 24.7933L184.261 24.912L184.341 24.0955C184.388 23.6057 184.507 23.2097 184.697 22.9077C184.892 22.6016 185.155 22.3868 185.488 22.2636C185.821 22.1358 186.219 22.0944 186.681 22.1395C186.826 22.1536 186.962 22.1737 187.087 22.1997C187.218 22.2216 187.343 22.2498 187.464 22.2844L187.372 23.2301C187.3 23.2095 187.217 23.1922 187.123 23.1784C187.028 23.1646 186.928 23.1526 186.824 23.1424C186.402 23.1013 186.088 23.1738 185.882 23.3597C185.681 23.5462 185.561 23.8412 185.521 24.2449L185.445 25.0273L187.112 25.1898L187.016 26.1695L185.35 26.0071L184.73 32.3617L183.546 32.2464Z" fill="black"/>
<path d="M190.807 33.0844C190.113 33.0168 189.527 32.8063 189.048 32.4529C188.575 32.0954 188.228 31.6196 188.006 31.0257C187.789 30.4322 187.719 29.7454 187.795 28.9652L187.796 28.9516C187.873 28.1669 188.075 27.5044 188.402 26.9639C188.734 26.4239 189.166 26.0265 189.7 25.7716C190.237 25.5172 190.853 25.4238 191.547 25.4915C192.245 25.5595 192.832 25.7701 193.306 26.123C193.779 26.476 194.125 26.9492 194.342 27.5427C194.563 28.1366 194.636 28.826 194.559 29.6107L194.558 29.6243C194.482 30.4044 194.278 31.0645 193.946 31.6045C193.618 32.145 193.188 32.5449 192.654 32.8043C192.121 33.0591 191.506 33.1525 190.807 33.0844ZM190.909 32.0366C191.372 32.0817 191.775 32.0111 192.118 31.8248C192.461 31.6384 192.737 31.3493 192.944 30.9575C193.156 30.566 193.291 30.0823 193.347 29.5062L193.348 29.4926C193.405 28.9121 193.367 28.4093 193.234 27.9842C193.106 27.5597 192.891 27.2251 192.59 26.9805C192.289 26.7314 191.908 26.5843 191.445 26.5392C190.982 26.4942 190.579 26.5648 190.236 26.7511C189.893 26.9329 189.616 27.2195 189.404 27.611C189.196 28.0028 189.064 28.4891 189.007 29.0696L189.006 29.0832C188.95 29.6593 188.986 30.1596 189.114 30.5842C189.246 31.0092 189.463 31.3463 189.764 31.5954C190.065 31.8445 190.446 31.9916 190.909 32.0366Z" fill="black"/>
<path d="M199.984 33.8482L200.699 26.5138L201.883 26.6292L201.168 33.9636L199.984 33.8482ZM201.436 25.157C201.213 25.1353 201.028 25.0372 200.88 24.8625C200.738 24.6837 200.677 24.4832 200.699 24.261C200.721 24.0342 200.819 23.8492 200.993 23.7059C201.172 23.563 201.372 23.5024 201.595 23.5241C201.822 23.5462 202.007 23.6444 202.15 23.8186C202.293 23.9928 202.354 24.1933 202.332 24.4201C202.31 24.6424 202.212 24.8274 202.037 24.9752C201.863 25.1185 201.662 25.1791 201.436 25.157Z" fill="black"/>
<path d="M205.904 34.5556C205.36 34.5026 204.887 34.3741 204.486 34.1701C204.085 33.9616 203.772 33.6953 203.547 33.3712C203.327 33.0476 203.214 32.6817 203.208 32.2736L204.419 32.3916C204.489 32.7052 204.66 32.9691 204.932 33.1834C205.205 33.3976 205.574 33.5275 206.041 33.5731C206.373 33.6053 206.667 33.586 206.926 33.5151C207.19 33.44 207.403 33.3257 207.564 33.172C207.726 33.0138 207.818 32.8235 207.839 32.6013L207.841 32.5877C207.865 32.3382 207.786 32.1176 207.603 31.9258C207.421 31.7294 207.108 31.5547 206.665 31.4016L205.555 31.0188C205.108 30.8653 204.745 30.688 204.467 30.4869C204.19 30.2813 203.993 30.0446 203.877 29.7769C203.762 29.5046 203.721 29.1939 203.755 28.8446L203.756 28.8378C203.795 28.4296 203.949 28.076 204.216 27.7769C204.488 27.4783 204.839 27.2561 205.27 27.1104C205.701 26.9646 206.175 26.9169 206.692 26.9673C207.205 27.0173 207.65 27.1431 208.029 27.3449C208.413 27.5425 208.71 27.8005 208.922 28.1187C209.138 28.4374 209.254 28.799 209.27 29.2034L208.106 29.0901C208.057 28.7923 207.903 28.5392 207.644 28.3308C207.385 28.1224 207.034 27.9965 206.589 27.9532C206.299 27.9249 206.036 27.9473 205.8 28.0205C205.564 28.0891 205.372 28.1987 205.225 28.3491C205.077 28.4996 204.993 28.6837 204.972 28.9014L204.971 28.915C204.955 29.0783 204.984 29.2277 205.057 29.3631C205.131 29.4985 205.254 29.6226 205.426 29.7356C205.598 29.8485 205.824 29.9552 206.103 30.0556L207.205 30.4378C207.879 30.6728 208.368 30.9631 208.673 31.3088C208.983 31.6549 209.112 32.0911 209.06 32.6172L209.059 32.6308C209.017 33.0663 208.85 33.4392 208.559 33.7497C208.268 34.0556 207.891 34.2799 207.428 34.4225C206.97 34.5656 206.462 34.61 205.904 34.5556Z" fill="black"/>
<path d="M214.612 35.2737L215.327 27.9393L216.511 28.0546L216.402 29.1705L216.511 29.1811C216.713 28.8024 216.992 28.5205 217.349 28.3355C217.71 28.1509 218.131 28.0821 218.612 28.1289C218.943 28.1612 219.235 28.2446 219.487 28.3791C219.74 28.5136 219.952 28.6876 220.123 28.9012C220.295 29.1103 220.426 29.3473 220.514 29.6124L220.623 29.623C220.78 29.3773 220.979 29.17 221.219 29.0012C221.461 28.8278 221.732 28.7031 222.032 28.627C222.338 28.5469 222.658 28.5232 222.994 28.5559C223.493 28.6045 223.905 28.7386 224.232 28.9582C224.563 29.1782 224.802 29.4762 224.948 29.8522C225.095 30.2237 225.144 30.6657 225.094 31.1782L224.6 36.247L223.416 36.1316L223.884 31.335C223.919 30.9721 223.891 30.6673 223.801 30.4203C223.716 30.1693 223.565 29.9738 223.35 29.8338C223.135 29.6892 222.855 29.6001 222.511 29.5665C222.17 29.5334 221.866 29.5816 221.597 29.711C221.328 29.8405 221.11 30.0276 220.945 30.2725C220.779 30.5128 220.681 30.7894 220.651 31.1024L220.191 35.8174L219.007 35.702L219.493 30.7217C219.521 30.4314 219.482 30.1735 219.376 29.9479C219.275 29.7182 219.114 29.5332 218.894 29.3927C218.679 29.2527 218.417 29.1676 218.109 29.1376C217.791 29.1066 217.495 29.1625 217.22 29.3051C216.95 29.4482 216.726 29.6553 216.548 29.9265C216.376 30.1936 216.273 30.4994 216.239 30.8442L215.796 35.389L214.612 35.2737Z" fill="black"/>
<path d="M226.764 36.4578L227.478 29.1234L228.662 29.2388L227.947 36.5732L226.764 36.4578ZM228.215 27.7666C227.993 27.7449 227.808 27.6468 227.66 27.4721C227.517 27.2933 227.456 27.0928 227.478 26.8706C227.5 26.6438 227.598 26.4588 227.773 26.3155C227.951 26.1726 228.152 26.112 228.374 26.1337C228.601 26.1558 228.786 26.254 228.929 26.4282C229.073 26.6024 229.133 26.8029 229.111 27.0297C229.089 27.252 228.991 27.437 228.817 27.5848C228.642 27.7281 228.442 27.7887 228.215 27.7666Z" fill="black"/>
<path d="M230.179 36.7906L230.894 29.4563L232.078 29.5716L231.97 30.6738L232.079 30.6844C232.303 30.3125 232.6 30.0369 232.97 29.8578C233.341 29.6741 233.796 29.6085 234.335 29.6611C235.161 29.7416 235.771 30.0391 236.165 30.5537C236.564 31.0642 236.721 31.7549 236.636 32.6258L236.173 37.3748L234.989 37.2594L235.424 32.7962C235.489 32.1339 235.396 31.6304 235.146 31.2855C234.9 30.9365 234.485 30.7334 233.9 30.6764C233.51 30.6384 233.164 30.6894 232.862 30.8294C232.56 30.9693 232.314 31.1858 232.125 31.4788C231.941 31.7722 231.828 32.1343 231.786 32.5652L231.363 36.906L230.179 36.7906Z" fill="black"/>
<path d="M241.297 38.0046C240.599 37.9365 240.013 37.7238 239.539 37.3663C239.071 37.0092 238.727 36.5362 238.51 35.9472C238.298 35.3542 238.229 34.6744 238.304 33.9078L238.304 33.901C238.378 33.1435 238.577 32.4921 238.9 31.9466C239.228 31.4017 239.655 30.9922 240.18 30.7184C240.706 30.4445 241.3 30.3398 241.962 30.4044C242.629 30.4693 243.186 30.6793 243.632 31.0341C244.083 31.3894 244.408 31.8561 244.608 32.4342C244.813 33.0082 244.88 33.6604 244.809 34.3907L244.764 34.8533L238.885 34.2805L238.978 33.3347L244.251 33.8486L243.581 34.6556L243.627 34.1862C243.683 33.6101 243.643 33.1277 243.507 32.739C243.371 32.3503 243.16 32.0504 242.873 31.8393C242.588 31.6238 242.247 31.4967 241.853 31.4583C241.458 31.4198 241.095 31.4829 240.763 31.6474C240.436 31.8079 240.163 32.0675 239.945 32.4263C239.727 32.7851 239.591 33.2389 239.538 33.7877L239.492 34.2572C239.441 34.7788 239.486 35.2342 239.627 35.6234C239.768 36.008 239.992 36.316 240.299 36.5474C240.607 36.7743 240.983 36.9094 241.427 36.9527C241.758 36.9849 242.051 36.9677 242.305 36.9008C242.558 36.834 242.772 36.738 242.944 36.6128C243.116 36.4877 243.242 36.3556 243.319 36.2167L243.352 36.1581L244.536 36.2735L244.517 36.3266C244.429 36.5698 244.292 36.8015 244.106 37.0214C243.925 37.2373 243.698 37.4281 243.425 37.5938C243.153 37.755 242.837 37.8753 242.477 37.9547C242.121 38.03 241.728 38.0466 241.297 38.0046Z" fill="black"/>
</g>
<defs>
<clipPath id="clip0_171_375">
<rect width="291" height="242" fill="white"/>
</clipPath>
</defs>
</svg>
