<svg width="296" height="175" viewBox="0 0 296 175" fill="none" xmlns="http://www.w3.org/2000/svg">
<path d="M190.759 27.9123C173.429 28.5307 145.383 82.3234 144.144 83.7452C119.6 111.969 112.995 134.395 108.614 136.271C101.991 139.11 101.051 132.381 97.189 134.228C89.3564 137.975 83.8125 165.165 96.871 154.491C99.8543 152.05 100.257 146.78 102.191 149.675C108.701 159.442 124.755 150.424 128.073 149.323C129.015 149.825 135.762 154.78 137.683 157.123C146.775 168.237 158.247 158.127 165.277 157.249C187.908 154.419 185.217 169.593 188.786 172.115C195.024 176.524 200.02 168.897 202.392 167.579C212.794 163.106 207.712 146.983 197.604 155.828C197.227 153.752 199.545 143.445 194.512 133.886C197.112 129.975 201.022 124.003 204.154 117.3C213.409 92.0575 215.112 87.4601 216.133 85.0409C224.267 65.7217 229.353 26.5353 190.759 27.9123Z" fill="#D9B3B3"/>
<path fill-rule="evenodd" clip-rule="evenodd" d="M141.146 81.7443C142.384 80.3226 170.43 26.53 187.761 25.9116C226.355 24.5346 221.848 64.6059 213.715 83.9251C212.694 86.3443 211.346 87.0518 201.33 115.56C198.966 122.29 195.882 125.551 192.292 133.519C186.1 131.005 191.974 120.447 192.748 119.504C190.619 125.098 188.983 128.278 190.731 131.601C195.765 141.16 196.15 155.859 196.526 157.936C206.635 149.09 210.577 162.521 201.819 167.386C199.447 168.704 194.451 176.33 188.213 171.922C184.644 169.4 188.794 153.972 166.163 156.801C159.133 157.68 147.661 167.79 138.569 156.675C136.648 154.333 128.347 149.896 127.405 149.394C124.087 150.495 108.033 159.512 101.523 149.745C99.5897 146.85 100.221 151.085 97.2382 153.526C84.1797 164.2 89.7236 137.01 97.5562 133.263C101.418 131.416 100.945 138.472 107.569 135.633C111.949 133.757 116.602 109.968 141.146 81.7443Z" stroke="black" stroke-width="1.25" stroke-miterlimit="1.5" stroke-linecap="round" stroke-linejoin="round"/>
<path fill-rule="evenodd" clip-rule="evenodd" d="M180.721 74.5038C180.821 74.5595 164.646 47.6655 154.746 41.8617C149.721 38.9174 133.52 33.1969 122.374 35.5304C109.336 38.2584 92.4034 48.7019 87.8553 57.7922C81.9516 69.6059 77.4663 77.0231 80.7089 94.8619C83.6461 111.025 100.119 124.712 119.207 118.349C130.173 114.695 128.215 111.928 137.997 100.58C140.583 97.579 139.742 96.9305 144.022 93.1259C145.177 92.0979 146.93 87.6381 158.729 83.4243C170.738 79.1343 174.432 80.0703 180.888 89.7556C182.294 91.8636 181.876 92.0372 184.051 102.929C185.876 112.033 183.909 115.186 188.24 114.877C190.323 114.728 189.75 111.718 193.449 113.141C198.683 115.154 196.16 108.514 201.616 107.422C215.796 104.587 203.235 96.0853 201.21 95.8828C190.533 94.815 181.951 78.0837 181.194 75.0507" fill="#FDB9B9"/>
<path d="M180.721 74.5038C180.821 74.5595 164.646 47.6655 154.746 41.8617C149.721 38.9174 133.52 33.1969 122.374 35.5304C109.336 38.2584 92.4034 48.7019 87.8553 57.7922C81.9516 69.6059 77.4663 77.0231 80.7089 94.8619C83.6461 111.025 100.119 124.712 119.207 118.349C130.173 114.695 128.215 111.928 137.997 100.58C140.583 97.579 139.742 96.9305 144.022 93.1259C145.177 92.0979 146.93 87.6381 158.729 83.4243C170.738 79.1343 174.432 80.0703 180.888 89.7556C182.294 91.8636 181.876 92.0372 184.051 102.929C185.876 112.033 183.909 115.186 188.24 114.877C190.323 114.728 189.75 111.718 193.449 113.141C198.683 115.154 196.16 108.514 201.616 107.422C215.796 104.587 203.235 96.0853 201.21 95.8828C190.533 94.815 181.951 78.0837 181.194 75.0507" stroke="black" stroke-width="1.25" stroke-miterlimit="1.5" stroke-linecap="round" stroke-linejoin="round"/>
<path d="M90.0703 93.625C90.2042 94.2488 91.4008 99.9103 92.246 101.295C95.2962 106.31 99.087 107.09 100.208 106.81" stroke="black" stroke-width="1.25" stroke-miterlimit="1.5" stroke-linecap="round" stroke-linejoin="round"/>
<path d="M146.883 71.9884C152.891 68.9846 153.188 69.988 163.121 71.4775C163.347 71.5114 172.627 76.8084 173.335 78.2176" stroke="black" stroke-width="1.25" stroke-miterlimit="1.5" stroke-linecap="round" stroke-linejoin="round"/>
<path d="M162.438 63.6094C162.659 64.952 168.128 66.6249 171.186 70.5583C174.99 75.4466 173.596 76.2357 174.864 77.5022" stroke="black" stroke-width="1.25" stroke-miterlimit="1.5" stroke-linecap="round" stroke-linejoin="round"/>
<path d="M188.551 98.3691C189.517 98.6988 191.894 105.83 192.12 106.504" stroke="black" stroke-width="1.25" stroke-miterlimit="1.5" stroke-linecap="round" stroke-linejoin="round"/>
<path d="M191.215 96.1055C192.349 97.8264 197.821 103.024 198.043 103.134" stroke="black" stroke-width="1.25" stroke-miterlimit="1.5" stroke-linecap="round" stroke-linejoin="round"/>
<path fill-rule="evenodd" clip-rule="evenodd" d="M162.132 89.4695C162.827 89.087 162.944 89.6121 171.199 85.4837L171.324 85.3574C172.136 85.1548 174.04 80.1457 177.442 77.4348C180.68 74.8541 188.412 69.2683 189.743 78.7888C189.287 78.6181 186.462 80.4544 185.186 82.9636C186.747 79.4837 188.839 78.7176 191.032 79.631C192.973 80.4386 194.575 82.0649 194.061 83.5787C193.655 84.7641 192.349 84.4921 191.052 85.1883C190.086 85.7084 188.96 87.4004 189.09 87.2226C194.458 79.7996 198.584 89.7716 195.672 90.3695C194.797 90.5481 192.462 91.1891 191.195 91.6946C191.596 98.5786 184.5 103.983 179.262 99.9912C179.266 108.52 162.136 114.302 157.613 112.427" fill="#D9B3B3"/>
<path d="M162.132 89.4695C162.827 89.087 162.944 89.6121 171.199 85.4837L171.324 85.3574C172.136 85.1548 174.04 80.1457 177.442 77.4348C180.68 74.8541 188.412 69.2683 189.743 78.7888C189.287 78.6181 186.462 80.4544 185.186 82.9636C186.747 79.4837 188.839 78.7176 191.032 79.631C192.973 80.4386 194.575 82.0649 194.061 83.5787C193.655 84.7641 192.349 84.4921 191.052 85.1883C190.086 85.7084 188.96 87.4004 189.09 87.2226C194.458 79.7996 198.584 89.7716 195.672 90.3695C194.797 90.5481 192.462 91.1891 191.195 91.6946C191.596 98.5786 184.5 103.983 179.262 99.9912C179.266 108.52 162.136 114.302 157.613 112.427" stroke="black" stroke-width="1.25" stroke-miterlimit="1.5" stroke-linecap="round" stroke-linejoin="round"/>
<path d="M113.159 15.3648L113.363 14.2972L116.358 14.8699C117.087 15.0094 117.668 14.9696 118.1 14.7505C118.531 14.5315 118.8 14.1444 118.906 13.5894L118.909 13.576C118.98 13.2044 118.952 12.8766 118.825 12.5926C118.699 12.3085 118.473 12.0705 118.148 11.8784C117.827 11.6871 117.409 11.5423 116.894 11.4439L114.014 10.8931L114.213 9.85239L116.751 10.3377C117.485 10.4781 118.061 10.4535 118.477 10.2641C118.898 10.0755 119.158 9.72608 119.255 9.21579L119.258 9.20236C119.352 8.70998 119.257 8.29741 118.973 7.96464C118.694 7.62826 118.254 7.40272 117.654 7.28803L114.807 6.74367L115.012 5.67609L118.114 6.26924C118.709 6.38308 119.2 6.57913 119.588 6.85739C119.98 7.13651 120.256 7.47918 120.414 7.88541C120.579 8.28801 120.614 8.7355 120.52 9.22788L120.517 9.24131C120.453 9.57703 120.316 9.87805 120.108 10.1444C119.904 10.4116 119.657 10.6219 119.368 10.7754C119.079 10.9289 118.772 11.0048 118.447 11.0031L118.427 11.1105C118.86 11.2489 119.217 11.4542 119.499 11.7262C119.781 11.9982 119.977 12.3187 120.088 12.6878C120.203 13.0533 120.221 13.4487 120.139 13.8739L120.137 13.8873C120.029 14.4513 119.804 14.9117 119.462 15.2686C119.125 15.6218 118.692 15.8614 118.162 15.9875C117.633 16.109 117.024 16.1039 116.335 15.9721L113.159 15.3648ZM112.555 15.2493L114.407 5.56055L115.616 5.79164L113.763 15.4804L112.555 15.2493Z" fill="black"/>
<path d="M121.577 19.6052C121.501 19.5907 121.417 19.5699 121.324 19.543C121.231 19.5206 121.146 19.4949 121.068 19.4661L121.251 18.5059C121.32 18.5331 121.397 18.557 121.481 18.5777C121.565 18.5985 121.648 18.6165 121.728 18.632C122.059 18.6953 122.346 18.662 122.589 18.5322C122.837 18.4031 123.065 18.1429 123.275 17.7514L123.491 17.3474L122.197 9.59042L123.446 9.82922L124.397 16.9429L124.073 16.1225L124.624 16.2277L124.021 16.871L127.522 10.6085L128.75 10.8435L124.455 17.9841C124.154 18.4881 123.865 18.8713 123.588 19.1337C123.31 19.3962 123.012 19.5596 122.694 19.6239C122.379 19.6936 122.007 19.6874 121.577 19.6052Z" fill="black"/>
<path d="M131.572 19.0179C130.883 18.8861 130.319 18.6205 129.88 18.2211C129.446 17.8226 129.148 17.3201 128.985 16.7137C128.828 16.1037 128.822 15.4204 128.966 14.6639L128.968 14.6572C129.111 13.9097 129.368 13.2792 129.74 12.7657C130.116 12.253 130.579 11.8845 131.128 11.6599C131.676 11.4354 132.277 11.3857 132.931 11.5106C133.589 11.6364 134.124 11.8965 134.536 12.2907C134.952 12.6858 135.233 13.1804 135.379 13.7744C135.531 14.3648 135.538 15.0204 135.4 15.741L135.313 16.1976L129.512 15.0883L129.69 14.1551L134.894 15.1501L134.153 15.8924L134.242 15.4291C134.35 14.8606 134.355 14.3766 134.255 13.977C134.155 13.5774 133.972 13.2594 133.707 13.023C133.442 12.7822 133.115 12.6245 132.725 12.55C132.336 12.4756 131.968 12.5051 131.623 12.6385C131.282 12.7683 130.987 13.0018 130.737 13.3391C130.487 13.6764 130.31 14.1159 130.207 14.6575L130.118 15.1208C130.019 15.6355 130.022 16.0931 130.127 16.4935C130.232 16.8895 130.427 17.2168 130.712 17.4753C130.997 17.7294 131.359 17.8984 131.798 17.9823C132.125 18.0448 132.417 18.0544 132.676 18.0111C132.935 17.9678 133.156 17.8917 133.339 17.7829C133.523 17.6741 133.659 17.5541 133.749 17.4228L133.788 17.3675L134.956 17.5909L134.932 17.6421C134.822 17.8763 134.665 18.0944 134.459 18.2963C134.259 18.4946 134.015 18.6638 133.729 18.8039C133.443 18.9395 133.117 19.0303 132.751 19.0763C132.39 19.1187 131.997 19.0992 131.572 19.0179Z" fill="black"/>
<path d="M139.428 20.52C138.738 20.3882 138.174 20.1226 137.736 19.7232C137.302 19.3247 137.003 18.8222 136.841 18.2158C136.684 17.6058 136.678 16.9225 136.822 16.1661L136.823 16.1594C136.966 15.4118 137.224 14.7813 137.596 14.2678C137.972 13.7552 138.435 13.3866 138.983 13.1621C139.532 12.9376 140.133 12.8878 140.787 13.0127C141.445 13.1386 141.98 13.3986 142.391 13.7928C142.808 14.188 143.089 14.6825 143.235 15.2765C143.387 15.867 143.394 16.5225 143.256 17.2432L143.169 17.6997L137.367 16.5905L137.546 15.6572L142.749 16.6522L142.009 17.3945L142.098 16.9312C142.206 16.3627 142.211 15.8787 142.111 15.4791C142.011 15.0796 141.828 14.7616 141.562 14.5252C141.298 14.2843 140.97 14.1266 140.581 14.0522C140.192 13.9777 139.824 14.0072 139.478 14.1406C139.138 14.2704 138.843 14.5039 138.593 14.8412C138.343 15.1785 138.166 15.618 138.062 16.1596L137.974 16.6229C137.875 17.1376 137.878 17.5952 137.983 17.9957C138.088 18.3916 138.283 18.7189 138.567 18.9775C138.853 19.2316 139.215 19.4006 139.654 19.4844C139.98 19.5469 140.273 19.5565 140.532 19.5132C140.791 19.4699 141.012 19.3938 141.195 19.285C141.378 19.1762 141.515 19.0562 141.605 18.9249L141.643 18.8697L142.812 19.093L142.788 19.1442C142.678 19.3784 142.52 19.5965 142.315 19.7984C142.115 19.9968 141.871 20.166 141.584 20.306C141.299 20.4416 140.973 20.5324 140.607 20.5784C140.246 20.6208 139.853 20.6013 139.428 20.52Z" fill="black"/>
<path d="M147.283 22.0221C146.594 21.8903 146.03 21.6247 145.591 21.2253C145.157 20.8268 144.859 20.3243 144.697 19.7179C144.539 19.1079 144.533 18.4247 144.678 17.6682L144.679 17.6615C144.822 16.914 145.08 16.2834 145.451 15.7699C145.828 15.2573 146.29 14.8887 146.839 14.6642C147.388 14.4397 147.989 14.3899 148.642 14.5149C149.3 14.6407 149.835 14.9007 150.247 15.295C150.663 15.6901 150.945 16.1846 151.091 16.7787C151.242 17.3691 151.249 18.0246 151.112 18.7453L151.024 19.2019L145.223 18.0926L145.402 17.1593L150.605 18.1543L149.865 18.8966L149.953 18.4333C150.062 17.8648 150.066 17.3808 149.966 16.9812C149.867 16.5817 149.684 16.2637 149.418 16.0273C149.153 15.7864 148.826 15.6288 148.437 15.5543C148.047 15.4798 147.68 15.5093 147.334 15.6427C146.994 15.7725 146.699 16.0061 146.448 16.3434C146.198 16.6806 146.022 17.1201 145.918 17.6617L145.829 18.125C145.731 18.6398 145.734 19.0974 145.838 19.4978C145.944 19.8937 146.138 20.221 146.423 20.4796C146.709 20.7337 147.071 20.9027 147.509 20.9866C147.836 21.049 148.129 21.0586 148.388 21.0153C148.647 20.972 148.868 20.896 149.051 20.7872C149.234 20.6784 149.371 20.5583 149.461 20.4271L149.499 20.3718L150.667 20.5952L150.644 20.6463C150.534 20.8805 150.376 21.0986 150.171 21.3006C149.97 21.4989 149.727 21.6681 149.44 21.8081C149.154 21.9437 148.828 22.0345 148.462 22.0805C148.102 22.1229 147.709 22.1035 147.283 22.0221Z" fill="black"/>
<path d="M155.139 23.5243C154.45 23.3925 153.886 23.1269 153.447 22.7275C153.013 22.3289 152.715 21.8265 152.552 21.2201C152.395 20.61 152.389 19.9268 152.534 19.1703L152.535 19.1636C152.678 18.4161 152.935 17.7856 153.307 17.2721C153.684 16.7594 154.146 16.3908 154.695 16.1663C155.244 15.9418 155.845 15.892 156.498 16.017C157.156 16.1428 157.691 16.4028 158.103 16.7971C158.519 17.1922 158.8 17.6868 158.947 18.2808C159.098 18.8712 159.105 19.5267 158.967 20.2474L158.88 20.704L153.079 19.5947L153.257 18.6614L158.461 19.6564L157.72 20.3987L157.809 19.9354C157.918 19.367 157.922 18.8829 157.822 18.4834C157.722 18.0838 157.539 17.7658 157.274 17.5294C157.009 17.2886 156.682 17.1309 156.292 17.0564C155.903 16.982 155.535 17.0114 155.19 17.1449C154.849 17.2747 154.554 17.5082 154.304 17.8455C154.054 18.1828 153.877 18.6222 153.774 19.1638L153.685 19.6271C153.587 20.1419 153.59 20.5995 153.694 20.9999C153.799 21.3959 153.994 21.7231 154.279 21.9817C154.564 22.2358 154.926 22.4048 155.365 22.4887C155.692 22.5512 155.985 22.5608 156.243 22.5174C156.502 22.4741 156.723 22.3981 156.906 22.2893C157.09 22.1805 157.226 22.0604 157.316 21.9292L157.355 21.8739L158.523 22.0973L158.499 22.1484C158.39 22.3826 158.232 22.6007 158.026 22.8027C157.826 23.001 157.583 23.1702 157.296 23.3103C157.01 23.4459 156.684 23.5367 156.318 23.5827C155.957 23.625 155.564 23.6056 155.139 23.5243Z" fill="black"/>
<path d="M161.171 21.2048L162.295 14.7104L163.638 14.9671L162.286 21.4179L161.171 21.2048ZM161.096 24.6563C160.823 24.6041 160.616 24.474 160.475 24.2661C160.334 24.0581 160.289 23.8176 160.341 23.5446C160.394 23.2671 160.525 23.0577 160.733 22.9165C160.941 22.7753 161.181 22.7308 161.454 22.7831C161.727 22.8353 161.932 22.9649 162.069 23.172C162.21 23.38 162.254 23.6227 162.201 23.9002C162.149 24.1733 162.019 24.3804 161.811 24.5216C161.607 24.6636 161.369 24.7086 161.096 24.6563Z" fill="black"/>
</svg>
