<svg width="1601" height="1618" viewBox="0 0 1601 1618" fill="none" xmlns="http://www.w3.org/2000/svg">
<g clip-path="url(#clip0_74_408)">
<path d="M1112.59 482.348C1126.19 480.959 1127.21 491.491 1125.27 502.232C1123.05 514.486 1117.06 524.269 1110.6 534.606C1120.02 530.132 1127 528.045 1129.47 541.25C1132.39 556.737 1116.92 571.056 1109.32 581.863L1109.6 582.75C1112.02 582.912 1115.34 583.395 1116.38 585.972C1123.8 604.238 1101.24 623.394 1087.64 631.449C1102 645.449 1082.59 662.86 1070.25 669.806C1067.57 671.31 1063.53 671.734 1060.49 672.164C1067.9 687.187 1058.04 696.183 1044.73 703.342C1041.44 705.116 1036.13 703.885 1033.92 706.761C1034.14 709.202 1034.67 713.148 1033.52 715.221C1026.77 727.371 1020.42 730.744 1008.34 735.256L1008.08 736.453C1011.35 739.732 1016.36 742.091 1020.44 744.228C1048.12 758.494 1078.07 761.742 1108.54 766.573C1122.72 768.822 1139.48 774.104 1119.37 789.386C1116.2 791.79 1109.23 793.108 1105.06 794.031L1105.47 794.592C1120.16 814.184 1088.99 820.67 1075.04 820.765C1073.16 825.262 1072.54 826.399 1069.8 830.423C1056.86 836.443 1048.46 838.045 1034.46 833.863C1027.23 838.684 1023.6 840.57 1014.42 840.444C995.368 840.176 971.526 820.268 958.824 806.861C946.713 809.394 940.551 809.805 928.338 809.955C929.979 814.208 931.423 821.183 935.794 822.469C938.216 821.42 939.045 820.836 941.711 820.907C949.853 828.616 979.557 823.25 983.991 831.267C984.252 839.363 982.114 853.164 981.041 861.757L974.973 910.458L968.749 961.865C967.439 972.809 965.782 993.356 962.074 1002.67C959.897 1003.47 956.906 1003.19 954.571 1002.9C908.922 997.365 863.258 991.936 817.624 986.31C815.431 986.042 812.236 984.795 810.185 983.99C815.06 936.694 821.719 888.064 827.305 840.689C828.449 833.776 828.701 815.778 832.962 811.769C841.072 810.531 894.753 817.474 904.615 819.439L900.196 817.553C890.863 813.624 887.597 809.836 885.648 799.792C866.5 789.412 853.419 777.075 842.563 757.645C839.628 752.392 837.885 745.375 834.603 740.463C828.607 739.857 821.246 740.186 815.613 738.22C809.19 735.98 804.173 730.953 797.964 728.464C794.595 727.111 790.705 726.877 787.156 726.147C763.287 721.232 768.919 706.788 763.5 703.389C761.667 702.24 758.674 701.571 756.609 700.82C747.665 697.567 737.746 693.711 731.83 685.87C727.258 679.811 729.251 669.722 727.781 668.286C725.642 666.197 722.57 664.77 719.986 663.249C711.154 658.051 703.437 652.368 697.876 643.533C695.694 640.066 693.978 635.805 695.048 631.654C695.894 628.376 698.091 626.971 700.824 625.361C693.041 620.151 686.046 614.403 679.18 606.582C672.36 598.708 662.254 580.816 671.956 572.166C674.316 570.061 679.217 571.64 681.908 572.137C681.003 568.978 676.727 564.773 674.522 561.921C662.315 546.136 655.485 535.838 656.633 515.723C668.403 502.536 677.083 516.093 686.828 525.101C701.671 538.823 715.686 552.855 732 564.924C748.47 577.109 765.86 588.179 781.374 601.569C799.147 617.617 808.378 633.916 829.001 648.365C852.496 634.728 873.064 648.889 887.818 666.227C897.774 677.917 901.727 676.724 913.845 670.497C945.861 654.049 957.616 620.693 981.885 596.808C1007.52 575.17 1034.03 555.546 1059.95 533.978C1076.47 520.229 1096.81 492.893 1112.59 482.348ZM904.181 682.15C907.463 685.705 910.563 687.92 910.216 693.087L909.19 693.794C887.699 686.649 872.244 635.504 832.323 654.72C824.544 658.374 818.571 665.009 815.747 673.123C813.901 678.562 813.987 682.394 814.666 687.963C822.224 694.365 847.676 699.79 828.757 715.553C838.958 727.315 841.53 738.222 847.415 752.092C861.932 786.283 907.676 809.055 944.228 802.837C938.808 799.847 929.246 795.381 926.279 789.563C925.695 788.422 926.492 787.282 925.956 785.518C932.023 784.826 937.104 793.329 943.557 795.846C963.983 803.8 986.445 794.323 999.881 778.269C1003.97 773.381 1005.61 766.484 1010.55 760.531C1011.23 754.763 1011.56 752.533 1010.74 746.595C1004.96 743.089 1004.75 742.666 999.936 737.868C995.833 738.305 993.427 738.561 989.222 738.455C981.932 737.673 956.181 732.786 957.175 723.203C958.784 722.458 960.323 722.303 961.916 723.147C977.648 731.444 992.891 734.81 1009.81 727.179C1017.04 723.918 1027.83 718.298 1027.17 708.764C1023.73 705.136 1005.42 707.419 1001.81 701.441C1002.61 699.104 1001.92 700.06 1004.13 698.617C1010.29 698.219 1015.6 699.522 1021.73 699.809C1032.04 700.293 1045.85 696.886 1052.94 688.944C1055.26 686.349 1056.22 683.802 1057.04 680.536C1054.55 670.827 1032.5 682.375 1022.94 674.641L1022.88 673.125C1026.4 669.7 1036.56 669.389 1041.88 669.789C1053.52 670.663 1089.48 653.982 1085.96 640.507C1077.92 634.203 1052.71 648.326 1040.18 644.323L1039.72 643.895C1040.16 642.359 1040.78 640.823 1042.46 640.373C1067.81 633.607 1098.92 623.695 1110.12 597.35C1110.97 595.355 1111.32 594.024 1110.88 591.706C1103.82 585.742 1062.43 615.135 1052.24 611.291L1051.27 609.243C1056.55 602.103 1083.68 593.463 1092.1 586.62C1102.31 578.315 1110.65 571.419 1117.37 559.653C1122.44 550.77 1124.82 547.138 1120.54 537.569C1108.8 540.379 1066.69 580.854 1058.3 577.293C1058.3 575.527 1058.87 573.566 1060.24 572.47C1085.15 552.525 1114.51 530.316 1119.44 496.482C1119.75 494.362 1119.26 492.597 1118.29 490.66C1116.35 489.078 1117.45 489.442 1115.12 489.088C1106.23 496.796 1096.95 507.083 1088.88 515.631C1067.12 538.967 1042.73 558.671 1016.92 577.299C1008.95 583.057 995.131 592.767 988.536 599.497C958.745 629.906 947.802 667.775 904.181 682.15ZM817.159 979.177C836.331 980.282 866.145 984.708 885.916 987.186C907.975 989.956 937.033 992.544 958.169 996.347C960.496 977.094 963.25 956.902 965.206 937.688L977.869 835.157C971.123 834.408 943.755 830.51 939.826 830.66L939.415 833.492L938.121 834.273C935.676 833.374 933.964 831.441 931.999 829.65C925.388 828.813 919.841 828.371 913.175 827.969L914.327 828.553C918.666 830.738 926.626 832.743 928.307 834.494C928.741 837.659 929.088 836.325 927.865 838.763C923.999 840.302 916.899 835.733 913.254 833.879C915.999 837.169 919.747 840.523 919.092 845.076L917.964 845.628C910.484 842.622 907.991 833.027 905.727 826.028C906.35 830.163 908.338 838.132 906.153 841.265C900.686 840.87 899.439 829.847 902.697 825.917C899.691 825.223 887.044 824.292 882.8 823.811C867.352 822.114 851.944 820.149 836.567 817.916C835.636 832.396 833.451 848.863 831.376 863.264C825.893 901.289 823.62 941.452 817.159 979.177ZM1017.66 750.625C1017.7 779.613 993.143 798.924 967.147 805.852C978.91 817.751 998.903 833.579 1016.38 833.674C1020.58 833.697 1023.72 832.538 1027.71 831.535C1018.88 826.336 1006.26 820.575 1002.25 811.375L1002.38 810.018C1011.78 808.455 1044.08 846.962 1068.91 819.7C1057.63 815.099 1031.05 807.54 1024.23 797.969L1024.5 796.714C1029.56 794.56 1032.08 797.298 1036.58 799.421C1048.28 805.362 1069.31 814.176 1082.82 812.787L1082.4 812.59C1089.32 812.03 1102.46 811.454 1102.33 801.898C1102.26 796.438 1081.62 794.923 1078.18 793.171L1079.27 793.179C1071.34 791.159 1041.23 786.947 1041.26 778.876C1048.71 774.908 1101.14 801.883 1120.94 778.753L1121.14 777.5C1116.13 772.948 1085.03 770.427 1077.35 769.046C1056.77 765.348 1036.32 760.083 1017.66 750.625ZM804.252 716.824L813.332 710.182C817.743 706.474 824.425 704.422 827.005 701.827C826.839 698.42 820.654 695.862 817.687 694.704C809.135 701.092 807.297 706.849 804.252 716.824ZM833.467 734.703C830.137 726.797 827.833 717.866 817.546 719.246C811.131 720.271 809.214 721.075 803.108 723.406C811.202 729.141 813.932 729.709 823.573 732.573L833.467 734.703ZM918.216 820.331L926.279 821.735C924.575 813.15 925.609 808.913 915.968 809.11C912.567 811.059 908.709 812.772 906.532 815.849L906.595 817.569C909.569 820.228 914.098 819.999 918.216 820.331ZM906.626 808.81L907.723 807.706C905.687 805.852 894.192 802.506 891.392 802.269C893.703 805.733 895.818 809.962 899.471 811.47C902.587 811.651 903.786 810.491 906.626 808.81ZM664.996 516.659C651.224 536.212 705.796 588.976 722.135 597.295C725.896 599.21 735.545 606.197 737.719 609.051L736.95 610.836C727.786 614.27 689.271 578.286 676.989 578.845C668.63 585.153 687.155 605.724 692.435 610.469C702.869 619.668 714.829 626.975 727.777 632.06C733.735 634.458 741.565 634.917 743.938 640.911L743.608 642.538C737.705 645.401 714.738 631.808 704.633 632.909L702.903 633.974C700.484 645.067 725.072 659.376 733.536 662.514C742.001 665.652 751.463 667.183 760.29 669.189C762.446 669.731 762.674 671.909 763.261 673.636C755.945 675.675 738.044 671.581 735.013 674.423C734.868 677.72 735.314 680.841 737.848 683.051C749.984 693.642 766.935 697.038 782.634 697.374C784.185 697.407 784.389 698.726 784.649 699.849C781.359 706.583 775.931 701.856 771.635 705.458C769.055 714.261 792.93 720.992 799.51 722.063C799.676 709.036 800.607 704.881 808.985 694.695C805.561 679.639 808.512 661.479 822.413 652.579C803.234 637.135 793.167 621.076 776.763 606.489C760.147 591.712 736.262 577.517 717.821 562.343C706.125 552.719 673.92 519.858 664.996 516.659Z" fill="black"/>
<path d="M846.627 670.107C857.207 669.887 860.023 676.565 862.753 685.267C860.339 694.281 858.469 697.909 849.159 700.195C843.179 700.524 837.506 697.345 835.029 691.799C833.199 687.652 833.214 682.924 835.061 678.787C837.609 673.078 841.191 671.989 846.627 670.107ZM850.145 695.554C855.976 694.235 859.613 688.411 858.248 682.587C856.875 676.764 851.021 673.175 845.214 674.596C839.471 676 835.936 681.767 837.293 687.519C838.642 693.271 844.378 696.857 850.145 695.554Z" fill="black"/>
<path d="M845.349 681.05C847.787 679.797 850.777 680.717 852.095 683.124C853.412 685.532 852.568 688.548 850.194 689.923C848.6 690.844 846.635 690.829 845.065 689.886C843.487 688.944 842.549 687.22 842.604 685.384C842.667 683.548 843.716 681.889 845.349 681.05Z" fill="black"/>
<path d="M896.3 850.978C924.379 848.918 943.164 874.989 933.01 901.044C928.718 912.067 921.318 921.449 914.391 930.941L896.758 955.126C895.085 957.572 893.444 960.389 890.619 961.107C884.829 955.323 866.351 905.731 864.426 895.765C860.142 873.624 873.042 855.073 896.3 850.978ZM903.045 903.206C911.984 901.312 917.673 892.49 915.708 883.558C913.752 874.634 904.892 869.016 895.976 871.044C887.164 873.056 881.617 881.799 883.558 890.628C885.499 899.466 894.201 905.076 903.045 903.206Z" fill="black"/>
<path d="M1454.02 75.9121C1476.22 76.7547 1462.73 108.217 1457.43 118.978C1460.75 118.292 1461.35 118.11 1464.67 118.218C1478.78 124.789 1469.86 145.662 1464.12 155.487C1462.15 158.862 1456.55 165.501 1455.8 168.771C1468.02 166.488 1464.83 184.788 1463.58 191.399C1461.16 204.086 1450.87 207.938 1446.55 216.501C1458.82 235.386 1444.32 248.765 1429.71 259.686C1441.39 273.939 1421.89 287.309 1411.58 294.034C1410.29 294.879 1410.63 301.09 1410.63 302.773C1407.82 307.865 1406.1 309.661 1402.18 313.601C1454.34 326.26 1480.72 306.118 1527.11 286.873C1535.07 283.576 1545.93 283.653 1549.1 293.139C1550.86 298.43 1546.78 304.209 1544.23 308.57C1548.57 310.429 1559.88 306.214 1562.85 313.256C1569.28 328.429 1555.69 339.987 1544.23 346.98C1546.61 348.714 1550.56 352.157 1550.46 354.866C1549.46 382.787 1494.11 388.685 1476.52 390.328C1455.26 392.314 1442.22 391.139 1425.16 390.009C1421.1 393.365 1416.12 395.995 1411.53 398.71C1411.46 401.263 1411.15 400.12 1412.5 402.267C1414.96 403.391 1418.21 402.456 1421.04 401.997C1424.83 404.237 1421.52 405.384 1424.01 406.008C1441.49 410.362 1459.34 413.958 1476.92 417.906C1494.98 421.963 1511.66 423.905 1506.78 447.724C1504.24 460.092 1501.25 472.797 1498.48 485.178L1482.79 555.79L1474.11 594.897C1472.53 602.053 1470.73 611.168 1468.45 617.929C1461.58 638.325 1429.95 626.598 1414.18 623.012L1366.62 612.247C1356.83 608.888 1350.56 601.349 1352.49 590.651C1357.48 562.909 1364.08 535.092 1370.34 507.56C1376.83 479.044 1382.61 449.798 1389.79 421.492C1387.4 419.195 1382.61 413.082 1380.27 410.23C1311.47 427.844 1242.18 402.776 1209.54 339.458C1201.98 324.797 1195.84 313.227 1180.16 306.267C1171.09 308.385 1162.67 314.43 1156.68 312.576C1149.94 305.438 1158.14 289.756 1162.4 282.624C1151.34 250.798 1177.19 219.11 1211.03 224.869C1205.06 207.802 1191.91 184.497 1193.22 165.872C1193.47 163.275 1195.05 158.822 1197.54 157.463C1212.76 149.149 1227.62 171.374 1233.92 180.713C1251.43 175.455 1261.28 196.673 1268.61 209.137C1286.48 212.219 1291.83 230.351 1299.44 245.025C1315.45 215.373 1321.18 184.211 1349.37 162.184C1372.44 144.168 1396.77 127.752 1418.37 107.943C1429.99 97.2831 1439.77 83.323 1454.02 75.9121ZM1430.96 383.434C1453.92 386.383 1536.73 383.019 1543.43 356.504C1542.59 353.964 1542.72 354.688 1540.09 352.747C1530.24 351.13 1488.18 366.716 1481.94 358.284L1482.07 356.654C1485.37 354.577 1506.71 352.239 1513.08 350.826C1528.07 346.688 1547.63 340.662 1555.99 326.234C1557.74 323.215 1558.48 321.002 1557.58 317.639C1556.08 316.18 1554.54 314.853 1552.16 315.172C1533.03 317.732 1501.31 337.916 1482.35 337.036L1481.63 336.127C1483.34 332.374 1487.19 330.947 1491.14 329.451C1509.26 322.576 1532.2 317.544 1542.19 299.194C1543.04 297.645 1543.43 296.402 1543.45 294.659C1542.63 293.202 1542.55 292.827 1540.8 292.395C1519.6 287.135 1464.16 343.663 1395.6 318.318C1388.77 321.647 1368.26 325.487 1362.88 319.221C1363.26 318.217 1363.44 316.682 1364.57 316.509C1375.77 314.797 1386.8 318.609 1396.19 309.898C1399.83 306.52 1405.03 303.675 1404.31 297.933C1398.19 293.17 1388.7 300.128 1383.56 294.147C1386.74 289.707 1400.16 289.597 1405.73 288.194C1413.9 286.13 1427.55 275.041 1426.24 266.074C1420.91 261.068 1406.78 269.462 1399.04 266.091C1397.68 263.819 1397.88 265.015 1398.51 262.375C1404.29 260.454 1410.76 259.256 1416.08 257.587C1427.85 253.886 1448.52 238.962 1444.15 224.796C1442.21 218.525 1416.45 235.291 1407.72 232.176C1406.4 230.334 1406.79 231.4 1407.22 228.674C1427.21 218.766 1449.88 213.276 1457.23 187.991C1458.54 183.489 1460.23 178.545 1456.66 174.703C1449.94 174.125 1419.44 200.508 1409.48 197.091C1408.96 195.645 1408.7 195.889 1409.24 194.704C1411.91 188.874 1454.39 172.946 1463.35 140.588C1464.32 137.08 1465.69 131.027 1464.46 127.5C1464.05 126.301 1463.56 126.114 1462.63 125.328C1453.36 125.196 1417.88 165.619 1407.67 162.316C1406.9 157.999 1423.62 145.688 1427.87 142.623C1438.65 134.853 1467.09 99.494 1458.32 84.7725C1456.43 83.5266 1457.24 83.723 1455.13 83.6173C1444.76 90.1413 1420.72 115.751 1408.37 126.138C1385.64 145.255 1355.53 162.329 1337.42 184.609C1327.75 196.512 1316.42 225.11 1310.18 239.632C1305.69 250.077 1288.75 283.193 1277.36 285.118L1275.44 284.491C1274.81 279.85 1280.68 277.386 1277.31 276.019C1269.65 272.913 1262 271.453 1255.19 266.4C1239.74 254.946 1230.64 235.1 1210.05 231.571C1203.36 230.425 1197.51 230.654 1190.41 233.445C1175.86 239.162 1162.84 257.541 1166.84 273.541C1167.93 276.313 1169.54 277.105 1171.94 278.045C1177.28 280.136 1185.44 281.616 1188.15 287.266C1190.62 292.432 1188.86 296.937 1186.4 301.49C1208.42 315.686 1209.73 329.206 1224.17 350.848C1258.81 402.751 1319.31 416.975 1377.73 403.999C1396.52 399.827 1425.53 384.992 1437.04 368.616C1441.06 362.898 1444.67 352.413 1447.08 345.636L1448.7 345.409C1455.83 351.789 1442.61 371.47 1437.65 377.28C1436.02 379.187 1432.92 381.735 1430.96 383.434ZM1359.61 586.566C1385.01 590.648 1411.1 597.896 1436.33 603.252C1444.57 605.002 1455.55 607.748 1463.64 608.844C1471.53 575.691 1478.93 541.685 1486.3 508.399C1490.33 490.22 1496.68 465.376 1499.66 447.344C1490.38 445.996 1479.35 442.935 1470.02 440.671C1454.9 436.938 1439.73 433.42 1424.52 430.117C1414.76 428.02 1406.18 425.736 1396.16 425.479C1387.82 461.605 1379.68 497.778 1371.75 533.998C1368.03 550.649 1364.09 570.373 1359.61 586.566ZM1170.13 283.07C1163.09 291.023 1161.46 296.087 1160.03 306.789C1163.04 304.582 1164.96 303.368 1167.45 300.539C1173.53 294.672 1175.63 292.828 1183.52 289.451C1178.28 285.572 1176.51 283.391 1170.13 283.07ZM1218.02 226.342C1250.93 242.019 1243.81 261.534 1284.46 271.029L1290.91 261.329C1292.74 258.163 1294.53 254.972 1296.27 251.757C1289.07 242.03 1284.12 220.011 1271.62 216.607C1269.92 217.324 1268.65 217.921 1267 218.754C1264.09 217.722 1263.38 215.99 1261.84 212.857C1257.39 203.795 1254.55 193.154 1244.9 188.134C1239.98 185.578 1232.2 190.087 1230.71 188.524C1222.38 179.716 1218.9 162.742 1202.39 162.449C1200.29 164.888 1198.7 167.263 1199.27 170.633C1202.25 187.95 1211.86 209.644 1218.02 226.342ZM1483.13 440.75C1487.75 441.861 1495.58 444.422 1499.86 443.266C1503.29 439.505 1497.73 431.068 1496.07 430.699C1476.18 426.265 1425.23 410.259 1407.13 411.331L1405.64 411.414L1404.27 413.133C1408.74 413.554 1408.76 412.17 1410.69 414.398C1410.8 417.129 1411.27 416.052 1409.94 417.962C1406.6 417.609 1399 416.218 1396.61 418.642C1396.93 419.985 1397.27 421.662 1398.79 421.97C1403.57 422.939 1429.47 429.519 1432.55 428.689C1433.22 427.581 1434.12 425.479 1435.07 425.479C1440.79 425.472 1458.08 429.45 1462.97 431.467C1464.52 433.219 1464.33 433.914 1464.63 436.278C1468.35 438.216 1478.14 439.609 1483.13 440.75ZM1363.55 603.037C1371.06 607.146 1441.43 624 1454.77 622.66C1457.84 622.352 1461.52 616.054 1463.18 613.085L1462.44 611.439C1453.21 610.002 1430.15 603.326 1423.78 604.663C1421.41 606.882 1423.06 610.764 1418.5 610.197C1415.04 609.767 1402.28 606.46 1399.92 604.912C1399.35 602.75 1399.94 601.438 1400.49 599.261C1397.47 596.257 1364.8 590.351 1358.82 589.254C1359.3 596.016 1359.78 597.402 1363.55 603.037Z" fill="black"/>
<path d="M1197.34 252.575C1204.64 252.462 1210.06 253.739 1213.81 260.773C1215.83 264.547 1216.19 268.984 1214.82 273.035C1213.04 278.271 1209.66 280.672 1204.99 283.035C1185.91 286.136 1178.12 262.399 1197.34 252.575ZM1203.68 279.027C1217.53 270.427 1212.89 256.115 1197.74 255.735C1186.46 264.932 1188.5 281.265 1203.68 279.027Z" fill="black"/>
<path d="M1200.13 262.817C1203.02 262.507 1205.65 264.491 1206.14 267.349C1206.64 270.208 1204.83 272.96 1202.01 273.639C1200.01 274.119 1197.92 273.45 1196.57 271.903C1195.23 270.357 1194.85 268.19 1195.6 266.28C1196.35 264.371 1198.1 263.036 1200.13 262.817Z" fill="black"/>
<path d="M1359.34 382.021L1360.79 383.348C1362.99 391.542 1348.46 397.516 1342.32 399.261L1340.57 399.184L1340.16 398.012C1342.72 394.161 1350.26 391.52 1353.9 388.362C1355.49 386.976 1357.97 383.752 1359.34 382.021Z" fill="black"/>
<path d="M1372.63 359.697C1380.19 366.525 1372.94 379.059 1361.89 380.062L1361.42 380.715L1360.91 380.081C1361.48 377.626 1363.2 376.6 1365.33 375.176C1371.45 371.089 1369.77 364.841 1372.63 359.697Z" fill="black"/>
<path d="M1377.64 333.625C1379.3 333.995 1379.49 334.123 1381.09 334.747C1386.89 341.886 1382.52 350.587 1376.15 355.657L1374.1 355.159L1373.87 354.217C1374.93 352.751 1375.96 351.268 1376.97 349.768C1380.76 344.086 1379.11 341.125 1377.64 333.625Z" fill="black"/>
<path d="M1418.61 469.779C1426.93 470.697 1429.85 486.956 1429.26 493.889C1429.03 496.642 1421.62 498.287 1418.67 499.816C1413.76 507.938 1426.97 529.456 1433.02 535.88C1437.53 534.029 1439.91 531.471 1445.46 529.628C1452.46 530.749 1459.25 544.818 1459.34 551.628C1459.37 553.925 1457.02 555.909 1455.43 557.389C1428.46 573.382 1407.38 531.976 1401.55 511.266C1396.38 492.944 1396.48 474.656 1418.61 469.779Z" fill="black"/>
<path d="M141.659 336.336C145.63 336.261 148.947 336.092 152.131 338.931C164.81 351.394 174.838 364.064 187.635 376.818C212.048 401.148 245.19 416.248 263.969 445.592C274.277 461.7 277.507 504.075 290.412 514.424C294.602 514.852 296.85 512.989 300.426 510.988C323.22 499.122 327.745 465.31 349.581 453.301C382.473 435.211 425.757 466.278 413.088 503.798C415.564 507.357 417.727 511.123 419.554 515.055C422.334 521.028 424.852 526.967 422.502 533.328C416.712 537.367 406.398 528.415 397.951 529.849C381.697 532.61 376.501 569.318 371.226 581.755C366.052 593.957 362.691 602.512 354.746 612.71C325.697 649.993 294.541 657.483 250.603 663.13C242.628 671.337 241.457 671.959 230.182 673.789L223.173 680.406C228.316 685.111 242.785 690.547 248.402 693.52C260.593 699.973 324.687 728.082 331.973 734.964C331.705 744.692 271.799 866.01 263.136 884.49C260.778 890.25 258.037 894.811 250.716 891.229C243.233 887.576 236.188 883.756 228.588 880.229C203.135 868.472 177.783 856.494 152.539 844.303C138.783 837.801 121.235 830.258 108.423 822.123C107.202 821.349 106.855 820.868 106.776 819.637C106.671 818.012 107.915 814.019 108.583 812.78C117.471 796.226 174.51 669.367 179.82 664.025C185.166 662.771 193.093 667.725 198.407 669.992C202.178 666.087 206.755 661.387 199.656 657.719C198.643 657.682 185.22 660.459 184.075 660.939C159.516 671.243 124.148 685.277 98.9676 669.562C92.8863 665.768 91.4449 662.638 90.5368 656.007C78.855 650.3 60.2829 652.172 56.3353 632.706C55.5549 628.858 58.4391 626.72 60.7789 623.988C59.496 619.069 29.955 607.444 51.9289 590.162C55.7695 589.892 59.6137 589.676 63.4604 589.515C61.9949 588.064 58.7002 584.577 58.0945 582.862C46.5702 550.475 98.3601 571.678 110.606 575.359C142.815 585.041 156.22 588.471 188.122 572.724C182.625 564.678 181.667 562.801 183.371 552.816C170.28 545.912 153.106 529.91 166.687 515.236C153.249 506.711 139.763 486.568 153.91 472.897C142.97 463.315 131.667 447.457 136.681 431.321C137.252 429.486 138.714 426.821 141.157 426.503C147.542 425.671 139.279 418.945 138.585 415.936C132.429 405.739 121.004 376.093 144.185 379.683C137.422 366.614 130.084 349.006 141.659 336.336ZM210.8 600.513C212.803 601.722 216.314 603.415 216.707 605.774C218.554 616.836 218.777 623.534 231.484 626.108L233.893 636.659C239.123 642.827 239.709 642.481 247.542 642.546C254.358 649.989 255.6 650.269 265.02 653.926C272.945 652.299 281.054 651.263 288.474 649.136C332.275 636.573 359.946 606.078 370.217 562.039C371.91 554.778 375.203 544.789 379.259 538.546C381.432 535.085 391.633 525.363 390.112 522.85C380.982 507.76 394.186 502.355 407.704 499.979C409.215 488.349 409.232 480.333 401.799 470.431C388.919 453.271 364.015 449.7 347.57 464.123C326.845 482.3 324.074 513.331 293.68 521.612C296.399 523.953 298.809 525.421 299.837 528.721L299.525 530.63C291.192 534.524 279.568 511.779 276.983 505.657C265.74 479.03 267.197 451.113 243.461 431.076C217.069 408.798 187.656 389.316 165.029 362.839C159.293 356.118 153.145 346.819 145.312 342.965C141.674 348.071 142.339 353.916 143.379 359.881C147.962 386.181 189.569 414.721 190.19 420.703L189.336 421.773C177.116 420.54 145.874 383.47 139.342 386.009C127.826 407.349 168.016 440.95 184.471 449.097C187.095 450.396 190.085 452.176 189.761 455.039C180.093 458.613 154.631 434.396 145.309 433.777C144.037 434.371 142.555 434.931 142.481 436.769C141.674 456.712 158.232 471.481 175.22 478.608C179.633 480.459 189.244 483.003 190.639 487.27C187.342 494.184 163.461 479.982 157.393 480.15C156.776 480.565 156.159 480.98 155.541 481.395C148.859 496.072 172.867 513.748 185.843 515.627C189.575 516.168 194.671 515.705 197.591 517.943C198.515 520.579 198.418 519.232 197.59 522.135C189.536 526.8 174.543 515.937 167.846 523.185C166.296 531.401 180.325 546.258 188.55 547.351C193.725 548.039 209.663 547.807 212.765 550.611C207.945 558.177 194.78 553.634 189.969 556.591C186.313 565.471 199.769 574.772 206.744 577.537C216.949 581.547 228.329 581.35 238.389 576.989C247.098 573.147 255.277 564.76 261.593 565.935L262.502 567.211C259.801 576.166 235.028 586.34 226.285 587.261C222.027 587.71 207.749 585.112 205.861 586.894C205.52 591.913 208.328 596.295 210.8 600.513ZM223.466 633.385C213.334 628.824 201.29 619.946 208.264 607.824C195.065 603.061 193.598 590.39 195.259 578.244C190.149 580.292 179.955 583.531 176.06 586.094C174.902 596.218 173.697 600.182 183.036 606.095C182.527 610.622 181.401 616.083 183.757 619.974C196.475 628.236 189.113 628.01 196.239 639.299C208.303 644.171 207.222 646.796 216.654 655.088C228.009 655.611 239.374 655.873 250.741 655.873C246.828 654.61 240.214 652.943 237.455 650.151C229.164 645.594 224.157 643.595 223.466 633.385ZM176.937 682.598C173.241 691.901 167.053 704.166 162.725 713.575C152.321 736.457 141.642 759.212 130.689 781.835C125.641 792.328 118.27 806.57 114.011 817.12C126.094 824.711 158.529 839.553 173.319 846.158C199.658 857.938 229.391 873.893 255.44 884.995L274.615 844.074C291.577 808.811 308.035 772.89 325.247 737.891C311.202 731.223 232.4 692.223 225.297 691.306C223.284 692.174 223.397 692.376 222.045 694.181L220.026 694.002C217.281 689.459 222.439 689.849 217.749 687.202C214.975 689.048 214.497 695.231 208.687 697.538C206.149 696.548 207.16 697.31 205.493 695.231C205.869 690.744 210.314 688.42 213.773 685.765C208.178 686.653 200.623 691.246 197.371 689.835C196.59 687.772 196.452 686.152 196.128 683.991L195.875 684.907C194.826 688.604 194.477 689.479 192.652 692.826C189.86 694.234 191.328 693.916 188.044 693.586C185.921 691.752 186.501 692.869 186.137 690.184C187.557 686.798 190.103 685.499 193.054 682.981C187.372 680.914 182.353 686.323 177.387 685.148C177.237 684.298 177.087 683.448 176.937 682.598ZM393.988 511.717C403.445 517.549 408.71 522.169 417.429 528.47C416.128 521.524 412.597 506.532 403.885 505.957C380.769 513.95 399.043 526.636 405.893 525.479L406.623 524.104C402.845 518.086 392.62 519.381 393.988 511.717ZM218.177 675.98C220.806 675.408 222.599 673.01 224.482 670.767C220.427 667.788 216.732 663.871 212.194 664.462C209.461 666.511 206.77 668.11 205.046 670.972L205.297 672.523C209.709 675.269 213.387 674.11 218.177 675.98ZM119.001 645.276C125.16 643.986 138.973 639.715 143.971 641.355C145.187 643.42 144.867 642.276 144.31 645.02C136.471 652.155 98.652 652.144 97.9822 660.072C101.854 665.132 114.444 668.482 120.558 669.02C138.695 670.618 171.591 660.215 187.946 651.785C191.17 652.08 197.873 653.121 200.355 651.837L200.01 650.601C194.404 647.503 190.082 647.855 187.281 641.247C186.195 638.687 185.004 634.54 184.362 631.644C176.255 623.107 170.893 624.569 173.744 609.646C171.211 607.098 170.015 606.087 168.021 603.095C165.098 598.708 167.433 590.661 165.416 588.888C160.374 589.163 151.03 591.615 148.012 591.439C123.102 589.984 86.5699 571.255 64.5377 572.291C54.633 597.156 122.437 597.608 128.329 603.609L128.519 605.494C118.351 613.133 64.7946 590.957 52.1774 599.336C51.3123 601.229 50.9214 602.97 52.0017 605.023C64.5245 628.828 105.617 620.459 127.858 621.15C130.375 621.228 130.309 621.727 131.506 623.172L131.44 625.089C122.392 633.173 68.2102 623.256 63.0831 632.849C63.2032 635.472 63.6964 636.351 65.7065 638.183C80.7506 651.894 101.211 647.976 119.001 645.276ZM230.893 669.133C233.68 667.691 236.206 666.22 239.202 665.309L241.562 663.482C239.867 661.42 224.617 662.124 220.082 661.365C224.83 665.622 225.399 666.016 230.893 669.133Z" fill="black"/>
<path d="M372.667 476.104C377.928 476.317 379.805 477.398 384.344 480.058C393.036 493.273 389.618 501.036 376.611 508.113C370.193 508.735 368.711 506.957 363.311 503.493C356.263 491.157 358.465 480.445 372.667 476.104ZM377.548 502.592C383.338 500.579 386.429 494.279 384.478 488.467C382.526 482.656 376.261 479.498 370.43 481.387C366.602 482.627 363.736 485.829 362.923 489.77C362.111 493.711 363.479 497.785 366.505 500.437C369.531 503.09 373.748 503.912 377.548 502.592Z" fill="black"/>
<path d="M371.073 485.902C378.941 486.552 380.212 490.581 377.668 497.517C368.296 497.573 368.169 493.344 371.073 485.902Z" fill="black"/>
<path d="M228.828 717.432C238.168 716.832 245.963 718.091 253.057 724.762C258.577 730.028 261.797 737.259 262.021 744.885C262.199 751.923 259.469 758.723 254.474 763.683C247.281 770.936 240.385 771.634 231.017 771.66C235.304 774.935 238.715 777.632 242.232 781.799C250.263 791.435 254.109 803.879 252.915 816.362C252.534 820.71 251.648 827.046 248.25 829.91C242.727 830.691 224.607 820.654 218.414 817.585C205.675 811.722 170.519 795.594 159.898 788.813C169.001 764.951 193.04 759.153 215.771 764.276C201.066 745.501 205.498 725.016 228.828 717.432Z" fill="black"/>
<path d="M150.689 807.217C156.503 807.801 234.542 844.674 239.234 848.327C240.247 851.207 240.1 849.731 239.395 852.927C222.33 847.254 198.211 833.303 180.978 826.012C176.141 823.961 154.208 813.711 151.454 811.714C150.029 808.819 150.223 810.278 150.689 807.217Z" fill="black"/>
<path d="M208.263 607.824L209.549 607.189C210.972 608.076 213.279 609.351 213.233 610.987C212.972 620.132 230.64 632.488 231.507 639.28C227.005 636.757 227.996 634.08 225.089 632.524C222.088 642.574 234.541 645.319 239.189 649.264L237.454 650.151C229.163 645.593 224.156 643.594 223.465 633.385C213.333 628.823 201.289 619.945 208.263 607.824Z" fill="black"/>
<path d="M1410.14 969.236C1413.03 969.157 1416.77 969.252 1418.77 971.595C1431.1 986.075 1412.99 999.315 1404.19 1007.66C1404.22 1010.11 1405.58 1010.97 1407.38 1013.44C1408.03 1018.16 1404.89 1021.51 1402.19 1025.42C1417.54 1021.14 1427.56 1017.65 1442.52 1010.09C1452.18 1005.21 1465.62 994.502 1475.89 991.077C1477.64 990.486 1481.1 991.543 1482.93 993.145C1485.02 996.774 1483.92 999.15 1484.13 1003.88C1488.58 1004.17 1496.32 996.167 1500.65 1001.36C1507.34 1009.38 1498.22 1018.97 1492.09 1023.93C1516.49 1033.77 1492.8 1053.39 1480.31 1061.19C1495.94 1076.16 1470.11 1090.42 1458.2 1095.05C1468.12 1110.51 1449.97 1118.76 1438.35 1123.91C1467.21 1148.96 1512.27 1150.67 1547.94 1142.51C1573.42 1136.68 1577.34 1156.76 1556.34 1168.64C1564.81 1172.31 1575.57 1177.11 1569.26 1189.53C1566.06 1195.84 1558.67 1197.97 1552.24 1199.86C1566.56 1220.54 1547.98 1223.29 1532.08 1226.3C1531.71 1232.85 1531.38 1236.74 1524.35 1238.5C1513 1241.35 1501.43 1237.36 1491.54 1231.88C1490.02 1231.02 1483.19 1226.58 1482.32 1226.37L1481.17 1227.33C1481.38 1232.7 1485.43 1244.73 1486.37 1249.92C1489.72 1268.24 1511.68 1341.56 1510.81 1353.75C1507.98 1356.93 1426.37 1376.71 1415.9 1379.19C1400.61 1383.53 1321.87 1404.52 1312.42 1403.62C1311.67 1403.09 1309.73 1401.78 1309.44 1400.79C1297.66 1360.37 1288.64 1318.63 1278.37 1277.75C1277.68 1275.03 1277.47 1272.49 1277.98 1270.26C1284.63 1262.73 1372.63 1244.67 1387.27 1239.6C1389.08 1238.97 1395.94 1237.72 1398.22 1237.34C1395.67 1229.35 1396.44 1224.89 1396.23 1216.45C1394.66 1214.34 1387.65 1214.51 1384.96 1214.71C1374 1215.5 1359.75 1211.83 1349.35 1207.86C1334.77 1202.38 1321.35 1194.2 1309.81 1183.73C1289.99 1165.93 1276.86 1142.32 1251.47 1133.23C1237.2 1128.11 1226.41 1140.61 1218.88 1138.71C1213.75 1131.99 1218.64 1116.25 1222.94 1109.93C1216.46 1086.06 1224.65 1060.42 1252.39 1056.14C1273.43 1052.9 1286.46 1063.69 1302.2 1075.8C1303.86 1053.97 1300.54 1027.78 1321.97 1013.84C1336.87 1004.16 1355.15 999.157 1370.91 990.998C1384.01 984.213 1396.46 974.957 1410.14 969.236ZM1333.96 1095.23C1325.29 1092.87 1318.08 1092.38 1309.84 1088.1C1298.26 1082.1 1289.24 1072.82 1277.73 1066.89C1259.02 1057.33 1233 1064.93 1227.21 1086.44C1225.59 1092.45 1225.84 1100.45 1229.01 1105.96C1229.38 1105.96 1229.74 1105.97 1230.11 1105.98C1236.41 1105.49 1243.52 1110.78 1248.02 1114.85C1250.59 1117.18 1248.46 1124.71 1248.58 1124.8C1250.11 1126.11 1258.5 1128.75 1260.87 1129.89C1265.62 1132.17 1269.27 1135.4 1273.25 1138.01C1284.41 1145.33 1288.39 1153.02 1296.54 1162.03C1314.81 1182.2 1337.89 1198.97 1364.73 1205.36C1386.31 1210.49 1417.1 1209.16 1436.48 1197.28C1444.94 1192.09 1453.29 1185.98 1458.1 1177.19C1460.93 1172.03 1461.77 1166.4 1465.85 1163.11C1465.43 1157.79 1464.65 1152.02 1464.67 1146.77C1455.97 1143.01 1449.81 1139.85 1441.79 1134.73L1440.31 1134.06C1439.24 1135.14 1436.44 1140.04 1434.78 1141.91C1432.84 1145.25 1416.11 1147.88 1415.46 1149.69C1412.05 1159.25 1406.68 1163.68 1396.16 1163.47C1387.84 1163.31 1369.78 1160.43 1370.67 1149.6C1379.17 1150.63 1390.59 1160.59 1401.49 1155.67C1404.64 1154.25 1408.95 1152.18 1407.87 1148.23C1402.98 1146.07 1392.65 1143.11 1389.83 1139.33C1393.24 1133.49 1426.08 1149.51 1432.55 1134.02C1433.35 1132.11 1434.26 1132.21 1434.17 1129.46C1429.17 1120.24 1410.69 1126.99 1406.4 1117.93C1408.72 1114.83 1422.76 1116.81 1426.88 1117.74C1435.38 1119.67 1454.48 1111.13 1454.52 1101.71C1448.98 1093.53 1425.69 1100.75 1420.08 1096L1420.18 1094.07C1426.83 1088.8 1458.29 1095.5 1473.04 1078.93C1474.86 1076.89 1476.8 1074.3 1477.21 1071.52C1477.48 1069.7 1477.27 1069.08 1476.55 1067.47C1470.83 1064.95 1441.51 1075.98 1432.05 1070.24L1431.88 1068.98C1436.8 1064.72 1458.14 1063.69 1465.83 1060.04C1473.02 1056.63 1502.07 1042.54 1493.82 1032.12C1485.47 1028.92 1447.13 1050.4 1437.67 1045.22L1437.17 1043.48C1441.14 1038 1495.67 1027.6 1495.66 1007.98C1489.07 1005.57 1466.03 1022.27 1459.48 1019.25C1463.87 1011.81 1480.17 1007.23 1478.13 998.944C1476.16 997.942 1476.96 998.108 1474.79 998.045C1451.38 1012.88 1435.45 1024 1408.01 1030.73C1392.63 1034.5 1371.07 1039.24 1360.83 1052.14C1348.58 1069.9 1349.31 1091.56 1331.42 1107.94C1328.94 1110.21 1326.66 1113.03 1323.12 1113.55C1321.19 1111.88 1321.51 1109.76 1322.33 1107.49C1327.17 1102.93 1329.88 1100.41 1333.96 1095.23ZM1405.84 1242.35C1367.39 1252.26 1326.78 1263.41 1288.2 1272.32C1299.29 1277.59 1310.95 1283.53 1322.01 1288.59C1346.97 1300.24 1371.83 1312.11 1396.57 1324.21C1417.95 1295.81 1439.08 1267.22 1459.94 1238.44C1456.13 1235.69 1453.02 1231.57 1449.85 1231.96C1442.72 1234 1430.86 1235.98 1425.47 1237.93C1425.02 1241.75 1428.15 1241.81 1426.73 1244.14C1421.53 1244.45 1419.68 1239.73 1414.43 1240.28C1413.88 1244.46 1417.05 1243.91 1415.88 1247.38C1412.38 1247.78 1411.48 1246.94 1408.77 1244.78C1407.79 1243.98 1406.81 1243.17 1405.84 1242.35ZM1371.92 1319.65C1355.71 1345.17 1336.45 1370.31 1320.25 1395.74C1338.97 1390.93 1359.82 1386.15 1378.19 1380.99L1498.48 1350.47C1473.21 1336.34 1443.01 1321.52 1416.92 1308C1396.79 1336.53 1401.96 1333.44 1371.92 1319.65ZM1477.59 1244.1C1475.03 1242.99 1469.89 1240.93 1467.72 1239.55C1451.87 1260.53 1436.65 1282.13 1420.77 1302.99C1437.56 1311.62 1456.38 1320.73 1472.76 1329.69C1482.04 1334.49 1494.55 1340.49 1503.33 1345.64C1494.97 1311.93 1486.59 1276.95 1477.35 1243.54L1477.59 1244.1ZM1231.4 1110.98C1226.64 1115.47 1219.51 1123.77 1222.78 1130.96C1227.23 1129.8 1232.09 1120.58 1241.41 1117.41L1243.3 1118.54C1239.81 1121.02 1233.41 1125.57 1231.33 1129.05L1231.95 1129.49C1249.81 1124.18 1245.47 1111.37 1231.4 1110.98ZM1427.48 1229.76C1434.38 1228.08 1441.73 1226.14 1448.69 1224.93L1447.75 1212.91C1443.28 1210.99 1437.32 1208.65 1433.34 1205.99C1423.58 1211.34 1412.72 1214.37 1401.6 1214.83C1402.68 1217.4 1404.93 1221.67 1404.54 1224.16L1404.01 1224.93C1401.21 1229.07 1400.31 1231.17 1403.85 1235.46C1406.58 1235.41 1407.41 1234.29 1408.61 1231.76C1408.09 1229.9 1408.16 1228.7 1408.13 1226.78C1412.31 1221.1 1423.21 1223.77 1427.48 1229.76ZM1410.72 976.069C1404.93 979.305 1400.14 982.792 1394.48 986.256C1386.52 991.125 1377.85 994.818 1369.56 999.276C1351.04 1009.23 1317.75 1015.42 1311.79 1038.66C1308.79 1050.39 1308.8 1066.8 1308.48 1078.9C1320.84 1085.43 1323.15 1086.29 1336.77 1089.4C1340.6 1082.46 1341.81 1079.61 1344.53 1072.26C1349.92 1055.39 1354.95 1042.98 1371.72 1034.55C1382.22 1029.26 1399.34 1029.99 1399.98 1014.03L1398.97 1012.46C1395.67 1011.99 1376.51 1024.44 1361.39 1023.48C1372.33 1012.79 1401.21 1007.92 1411.16 991.835C1414.28 986.793 1418.53 983.376 1414.65 976.953C1412.73 975.88 1412.88 975.833 1410.72 976.069ZM1470.39 1219.42L1471.68 1218.94C1465.1 1214.48 1459.08 1210.89 1453.08 1205.58C1453.46 1212.02 1453.72 1217.17 1453.58 1223.6C1459.31 1221.93 1464.92 1221.21 1470.39 1219.42ZM1335.87 1361.01L1356.24 1331.31C1358.8 1327.64 1364.31 1320.47 1366.25 1317L1285.57 1278.11C1292.15 1310.77 1301.71 1343.13 1309.46 1375.57C1310.79 1381.15 1312.38 1387.24 1314.03 1392.75L1335.87 1361.01ZM1553.74 1148.39C1528.84 1153.77 1495.5 1156.99 1471.01 1148.98C1472.1 1167.34 1466.86 1185.04 1450.78 1195.59C1462.67 1205.07 1508.81 1241.06 1523.68 1231.51C1529.73 1221.05 1488.31 1210.48 1484.02 1199.79L1484.76 1198.64C1490.69 1197.65 1504.49 1207.16 1512.28 1210.93C1522.11 1215.56 1541.84 1225.42 1550.31 1211.32C1551.08 1210.04 1550.57 1209.57 1550.23 1208.05C1540.81 1195.72 1499.29 1195.05 1498.91 1183.91C1505.26 1180.93 1565.92 1209.86 1563.27 1180.41C1555.9 1170.94 1511.81 1176.23 1504.58 1169.26C1504.72 1168.13 1504.46 1167.73 1505.5 1167.02C1513.1 1161.85 1538.51 1174.65 1556.7 1160.21C1559.11 1158.3 1561.76 1155.87 1562.45 1152.77C1562.78 1151.35 1562.22 1150.91 1561.62 1149.69C1558.76 1147.84 1557.31 1147.9 1553.74 1148.39Z" fill="black"/>
<path d="M1254.48 1081.19C1261.3 1080.41 1266.98 1082.22 1270.48 1088.58C1272.47 1092.19 1272.83 1096.46 1271.46 1100.35C1269.66 1105.48 1266.61 1107.07 1262.04 1109.29C1255.43 1111.11 1248.79 1108.23 1245.76 1102.01C1243.86 1098.13 1243.71 1093.63 1245.31 1089.62C1247.1 1085.08 1250.31 1083.15 1254.48 1081.19ZM1258.84 1105.73C1264.43 1105.13 1268.53 1100.18 1268.05 1094.57C1267.57 1088.97 1262.7 1084.77 1257.09 1085.14C1253.36 1085.38 1250.04 1087.62 1248.43 1090.99C1246.82 1094.37 1247.16 1098.36 1249.32 1101.41C1251.48 1104.46 1255.12 1106.11 1258.84 1105.73Z" fill="black"/>
<path d="M1255.41 1090.36C1263.02 1090.24 1264.22 1095.5 1259.61 1100.88C1257.67 1101.29 1257.66 1101.23 1255.66 1101.07C1251.23 1097.45 1252.72 1094.59 1255.41 1090.36Z" fill="black"/>
<path d="M1349.53 1143.23C1354.41 1143.72 1364.24 1151.34 1365.73 1156.04C1358.52 1155.08 1351.3 1150.61 1349.53 1143.23Z" fill="black"/>
<path d="M464.853 1127.76C481.031 1128.61 494.956 1152.1 507.648 1163.19C518.22 1172.34 529.12 1181.09 540.329 1189.45C557.365 1202.03 577.138 1213.39 589.494 1230.57C602.1 1248.11 600.733 1266.98 611.15 1285.47C627.104 1270.73 626.859 1245.94 648.967 1237.82C654.649 1235.73 660.975 1235.2 666.972 1234.36C682.916 1216.12 698.466 1203.37 713.401 1183.52C717.64 1177.85 721.529 1171.92 725.046 1165.77C729.397 1158.03 735.943 1140.78 745.473 1141.02C766.56 1141.56 760.878 1174.67 755.22 1187.36C754.634 1188.67 749.079 1199.21 748.124 1201.45C763.373 1213.34 749.758 1233.69 738.72 1244.84C750.272 1258.06 733.07 1277.3 721.667 1284.24C724.81 1301.48 711.82 1308.33 701.889 1319.09C699.382 1321.8 698.829 1328.99 694.145 1333.3C689.441 1337.62 683.677 1341.16 679.603 1345.73C674.613 1373.68 664.888 1391.79 641.584 1406.12C639.618 1407.32 638.315 1410.57 638.649 1412.75C639.928 1421.1 632.699 1420.33 630.922 1424.38C633.871 1425.84 655.779 1423.97 660.655 1424.79C669.115 1426.21 711.06 1423.04 715.807 1427.03C718.473 1434.83 717.3 1492.67 717.304 1504.31C717.307 1515.32 718.238 1601.04 716.029 1604.22C707.857 1605.95 582.036 1606.44 577.021 1604.51C574.058 1600.77 575.089 1588.22 575.094 1582.99C575.143 1531.51 575.151 1480.03 575.137 1428.55C566.571 1444.06 524.616 1481.11 509.476 1457.77C499.707 1459.72 489.021 1461.12 480.138 1454.6C476.101 1451.64 476.43 1447.04 476.175 1442.45C451.087 1436.9 443.423 1425.49 470.535 1412.89C461.476 1405.08 464.015 1400.52 471.091 1392.93C491.1 1388.09 512.184 1388.02 530.169 1375.85C537.484 1370.9 550.395 1359.69 553.809 1351.58C552.634 1351.5 551.46 1351.42 550.286 1351.31C537.449 1350.23 522.384 1344.59 523.74 1329.28C517.455 1327.63 511.351 1325.31 507.3 1322.55C495.116 1314.25 495.554 1308.19 497.98 1297.5C490.166 1289.18 479.704 1287.57 477.685 1274.36C476.24 1264.9 480.524 1265.76 482.527 1259.39C469.947 1252.09 456.898 1233.09 464.928 1218.56C467.107 1216.66 468.033 1216.7 470.991 1215.99L471.99 1215.76C463.783 1205.63 446.826 1187.13 458.245 1170.97C459.653 1168.98 464.496 1169.44 467.076 1169.38C466.029 1162.52 457.969 1154.29 458.088 1144.86C458.18 1137.53 460.11 1133.12 464.853 1127.76ZM553.251 1364.02C550.803 1366.91 548.775 1369.27 546.089 1371.99C547.314 1379.97 548.05 1383.18 552.087 1390.37C558.399 1401.63 575.696 1414.01 589.409 1410.98L588.219 1410.22C588.217 1407.63 588.133 1407.79 589.206 1405.46C592.215 1403.52 596.463 1403.8 599.883 1404.32C601.931 1405.73 603.088 1406.2 604.092 1408.46C602.477 1411.57 597.74 1411.21 594.376 1411.49C601.773 1412.74 608.198 1411.3 615.547 1409.78C618.866 1405.64 625.681 1397.24 631.36 1397.06C636.021 1396.91 634.944 1403.59 641.991 1398.21C659.232 1385.05 668.769 1369.12 672.418 1347.95C675.831 1328.16 669.499 1315.63 682.171 1299C675.44 1292.56 675.505 1286.92 682.024 1280.1C686.041 1275.9 695.861 1274.49 695.327 1267.2C693.296 1239.42 656.303 1232.19 640.218 1252.19C628.583 1266.65 629.062 1278.73 614.447 1292.42C616.911 1295.83 619.739 1298.76 619.154 1303L617.909 1303.61C600.051 1297.36 595.762 1249.27 584.197 1234.02C571.153 1216.82 552.317 1206.38 535.269 1194.13C527.338 1188.39 519.689 1182.27 512.347 1175.8C505.098 1169.32 498.124 1162.54 491.444 1155.49C484.698 1148.41 476.724 1138.09 468.452 1133.57C451.679 1155.23 498.769 1196.89 515.43 1207.13C517.155 1208.19 518.399 1211 517.67 1213.1C506.146 1213.77 473.248 1175.89 462.756 1175.96C461.336 1177.58 460.463 1179.48 460.838 1181.64C463.913 1199.39 473.748 1210.72 487.35 1220.91C491.695 1224.18 496.225 1227.19 500.918 1229.93C505.266 1232.44 515.468 1236.71 517.857 1239.45L517.877 1240.95C509.887 1247.7 479.701 1219.06 470.135 1223.49C463.535 1233.96 480.087 1250 488.729 1255.44C495.669 1259.73 503.184 1263.01 511.049 1265.19C515.926 1266.53 521.958 1266.51 524.07 1271.34C519.746 1278.36 492.715 1262.08 484.211 1268.31C483.379 1270.32 483.659 1271.63 484.475 1273.58C490.835 1288.77 506.687 1295.04 522.181 1295.22C526.067 1295.27 531.461 1295.39 534.644 1297.88L534.905 1299.58C530.126 1305.99 512.795 1298.93 503.848 1303.13C498.045 1310.32 512.175 1316.64 515.73 1319.37C523.552 1325.36 546.576 1319.48 550.028 1322.03C548.548 1331.32 534.489 1325.61 530.381 1331.85C531.622 1345.16 546.825 1343.95 557.038 1344.24C562.394 1344.39 572.195 1339.93 576.489 1340.51L577.357 1341.63C576.772 1343.97 576.074 1345.48 573.634 1346.62C559.68 1353.1 561.702 1350.86 553.251 1364.02ZM581.444 1598.11C622.896 1598.13 670.187 1597 711.127 1598.28L711.258 1531.13L711.754 1432.38C702.283 1432.41 628.302 1431.67 625.907 1433.1C624.473 1438.44 624.279 1442.33 619.725 1445.2L618.654 1444.68C618.358 1441.43 618.634 1440.05 619.027 1436.75C614.022 1442.14 616.388 1447.13 610.884 1449.42C607.375 1446.82 608.718 1444.57 609.461 1440.43C605.892 1443.05 601.678 1447.15 597.099 1446.38L596.332 1443.68C599.24 1440.94 601.857 1438.77 604.922 1436.27C607.487 1436.65 607.576 1438.27 609.751 1439.42C611.652 1438.14 610.792 1438.85 611.864 1436.19C611.327 1433.2 612.028 1434.36 609.98 1432.47C606.526 1432.58 602.115 1435.5 598.934 1437.3C597.61 1439.71 596.223 1441.67 593.726 1442.84L592.613 1442.13C591.708 1437.91 591.882 1436.95 592.652 1432.62C591.473 1432.11 591.499 1431.89 590.433 1431.99C587.473 1432.09 584.512 1432.16 581.55 1432.22L581.444 1598.11ZM689.211 1302.22C677.745 1312.14 680.522 1322.39 680.017 1336.17C684.312 1333.21 688.851 1328.65 692.348 1324.75C694.107 1322.4 694.361 1322.87 694.428 1320.44L691.984 1317.78C693.315 1313.11 702.363 1311.87 709.061 1303.46C702.467 1302.65 695.869 1301.93 689.211 1302.22ZM540.124 1377.3C515.124 1399.83 481.386 1392.69 472.515 1401.53C468.682 1414.21 493.197 1409.52 499.471 1406.8C504.394 1405.27 507.225 1403.61 512.086 1404.25L513.185 1405.2C511.767 1409.11 505.846 1410.57 502.2 1411.87C491.151 1416.1 469.494 1419.52 462.248 1426.2C461.773 1427.44 461.211 1427.81 461.844 1428.94C473.083 1449.09 515.022 1416.82 523.775 1419.7L524.319 1420.8C522.395 1431.28 483.997 1437.4 483.23 1446.61C493.149 1464.63 530.717 1438.86 539.839 1429.76C540.815 1428.79 542.057 1429.29 543.151 1429.61C545.575 1438.62 519.402 1449.85 516.686 1455.2L517.524 1456.22C519.726 1457.27 521.371 1457.58 523.869 1457.33C547.741 1454.92 563.711 1431.93 578.182 1416.33C555.598 1410.89 545.898 1399.28 540.124 1377.3ZM588.962 1424.48C593.072 1424.37 594.873 1424.57 598.477 1422.59L599.381 1420.35C595.605 1417.03 590.639 1417.77 585.626 1417.82L579.821 1423.25C582.134 1423.81 586.108 1423.93 588.962 1424.48ZM683.076 1285.65C689.629 1288.17 692.683 1289.89 698.848 1293.41C701.54 1294.81 701.596 1295.49 703.853 1294.98C705.322 1288.66 696.929 1279.72 691.334 1277.3C687.842 1280.46 686.163 1282.03 683.076 1285.65ZM612.907 1416.78C608.081 1417.35 606.638 1417.74 604.008 1421.98L604.324 1423.91C606.676 1425.34 607.516 1424.67 610.944 1424.46C613.363 1424.56 617.831 1425.04 619.902 1424.23C619.963 1424.27 617.044 1422.39 617.061 1422.43C615.651 1419.51 616.753 1416.16 612.907 1416.78ZM720.676 1276.79C727.652 1271.23 735.424 1262.3 736.546 1253.16L735.819 1251.61C729.906 1250.18 723.632 1258.14 718.883 1255.67C718.907 1253.91 718.769 1252.75 720.314 1251.5C733.736 1240.58 747.275 1231.31 748.284 1212.4C748.339 1211.37 748.196 1210.7 748 1209.68L746.906 1208.84L745.288 1209.43C745.3 1208.46 745.271 1207.55 745.17 1206.59C742.216 1208.61 738.708 1210.96 735.166 1211.6L734.62 1210.78C740.753 1198.47 750.395 1188.01 752.799 1173.44C754.366 1163.94 757.027 1148.42 743.262 1147.98C738.813 1152.62 733.442 1163.36 730.034 1169.33C725.988 1176.54 721.407 1183.44 716.329 1189.97C701.498 1208.67 686.371 1219.55 673.434 1235.43C695.647 1241.83 702.431 1254.39 701.332 1276.87C703.23 1279.47 705.284 1283.08 708.118 1284.12C712.143 1283.59 714.765 1279.08 720.676 1276.79ZM713.173 1297.99C714.283 1295.17 716.145 1291.79 715.381 1289.07C712.92 1287.42 712.488 1288.05 708.853 1288.03C709.256 1291.09 709.67 1296.6 711.004 1299.11L712.089 1299.22L713.173 1297.99ZM696.111 1296.64C695.156 1293.26 686.975 1290.23 683.753 1288.75C682.315 1291.31 682.567 1289.98 682.907 1292.85C684.684 1295.18 686.128 1295.58 689.016 1295.95C691.375 1296.22 693.741 1296.46 696.111 1296.64Z" fill="black"/>
<path d="M661.714 1257.19C680.915 1256.83 685.769 1275.09 668.835 1285.11C668.187 1285.15 667.539 1285.18 666.891 1285.22C658.503 1285.16 652.621 1279.35 653.364 1270.93C653.994 1263.79 656.815 1261.47 661.714 1257.19ZM667.886 1280.68C673.072 1279.68 676.502 1274.71 675.59 1269.51C674.678 1264.31 669.761 1260.81 664.547 1261.64C661.103 1262.19 658.222 1264.55 657.009 1267.83C655.796 1271.1 656.44 1274.77 658.693 1277.43C660.947 1280.1 664.461 1281.33 667.886 1280.68Z" fill="black"/>
<path d="M664.058 1267.83C665.535 1267.03 667.338 1267.1 668.743 1268.03C670.147 1268.96 670.922 1270.59 670.755 1272.27C670.589 1273.94 669.509 1275.39 667.949 1276.02C665.72 1276.93 663.171 1275.94 662.137 1273.77C661.105 1271.6 661.947 1268.99 664.058 1267.83Z" fill="black"/>
<path d="M631.844 1490.28C641.859 1490.38 682.958 1488.71 688.358 1493.17C688.491 1495.26 688.805 1494.35 687.445 1495.92C679.606 1496.68 670.751 1496.47 662.807 1496.42C653.706 1496.38 610.488 1497.73 605.539 1494.25L605.586 1492.87C609.593 1489.45 625.706 1490.32 631.844 1490.28Z" fill="black"/>
<path d="M603.887 1463.87C611.959 1463.16 684.49 1462.54 687.868 1464.66C688.852 1465.27 688.848 1467.37 689.045 1468.48C678.362 1470.68 620.666 1469.09 606.853 1468.68C605.196 1468.63 604.573 1465.67 603.887 1463.87Z" fill="black"/>
<path d="M605.639 1518.49C615.329 1517.77 682.248 1517.36 688.302 1519.25C689.059 1521.6 688.853 1520.37 687.818 1523.34C679.781 1524.44 612.214 1524.25 605.745 1522.77C604.784 1520.21 605.007 1521.57 605.639 1518.49Z" fill="black"/>
<path d="M605.209 1545.32C611.207 1544.99 655.581 1545.1 659.839 1545.9C661.769 1547.74 661.144 1547.37 661.499 1550.85C654.586 1551.04 611.708 1551.29 607.284 1550.29C605.211 1548.03 605.857 1548.79 605.209 1545.32Z" fill="black"/>
<path d="M499.471 1406.8C504.394 1405.27 507.225 1403.61 512.086 1404.25L513.185 1405.2C511.767 1409.11 505.846 1410.57 502.2 1411.87L499.471 1406.8Z" fill="black"/>
</g>
<defs>
<clipPath id="clip0_74_408">
<rect width="1601" height="1618" fill="white"/>
</clipPath>
</defs>
</svg>
