<svg width="318" height="170" viewBox="0 0 318 170" fill="none" xmlns="http://www.w3.org/2000/svg">
<path d="M83.0961 76.7504C72.1366 79.2834 50.7751 50.4365 87.9784 40.4925C100.34 37.1883 104.245 39.3247 109.211 27.9468C122.468 -2.42709 151.232 2.63744 159.975 11.0714C170.913 21.6229 171.424 36.886 177.083 45.4865C188.476 62.8055 223.835 55.4797 215.379 103.646C214.045 111.249 211.214 120.012 206.81 123.866C201.859 120.331 188.544 109.263 188.082 109.085C188.544 99.3583 186.881 99.3803 183.991 99.4918C177.148 90.8363 165.536 88.9293 162.415 89.5242C163.416 87.628 165.374 83.5456 165.189 82.3856C165.096 78.6378 148.594 72.4023 139.27 69.9856L130.001 87.2734C124.105 86.4926 119.144 88.5608 108.279 90.3455C99.5862 91.7732 96.3273 96.6766 94.1696 99.3536L87.6452 80.496L83.0961 76.7504Z" fill="#D9B3B3"/>
<path d="M84.6568 77.0557C74.304 79.5353 54.5598 49.438 89.7037 39.7033C101.381 36.4686 104.223 36.9787 108.913 25.8403C121.437 -3.89436 148.609 1.06359 156.868 9.32006C167.2 19.6495 168.531 36.1726 173.876 44.5921C184.639 61.5467 218.041 54.3751 210.053 101.527C208.793 108.97 206.781 115.862 202.62 119.635C197.944 116.174 188.482 109.21 188.045 109.035C188.482 99.5137 183.132 97.3517 180.402 97.4609C173.938 88.9875 165.48 87.8115 162.532 88.3939C163.478 86.5376 165.327 82.5411 165.153 81.4055C165.065 77.7366 146.864 71.6247 138.056 69.2588L129.648 85.5286C124.079 84.7642 119.145 86.7599 108.88 88.507C100.669 89.9047 94.5398 95.4954 92.5015 98.116L84.6568 77.0557Z" stroke="black" stroke-width="1.25" stroke-miterlimit="1.5" stroke-linecap="round" stroke-linejoin="round"/>
<path fill-rule="evenodd" clip-rule="evenodd" d="M113.72 21.5293C113.353 22.6382 111.905 33.3323 115.258 36.2184C120.209 40.3556 123.798 38.2982 126.008 35.9609C127.171 34.7304 127.95 33.4224 128.346 32.8997C129.721 31.0782 114.588 22.195 113.72 21.5293Z" fill="black" stroke="black" stroke-width="1.25" stroke-miterlimit="1.5" stroke-linecap="round" stroke-linejoin="round"/>
<path fill-rule="evenodd" clip-rule="evenodd" d="M148.897 21.6055C149.264 22.7143 150.712 33.4085 147.359 36.2946C142.408 40.4318 138.819 38.3744 136.61 36.0371C135.447 34.8066 134.667 33.4986 134.271 32.9759C132.896 31.1543 148.029 22.2712 148.897 21.6055Z" fill="black" stroke="black" stroke-width="1.25" stroke-miterlimit="1.5" stroke-linecap="round" stroke-linejoin="round"/>
<path d="M97.5469 51.5078C97.5469 53.2555 101.103 54.5486 101.484 54.6869C106.547 56.5275 106.341 56.696 106.784 56.8055C106.784 56.8055 111.422 58.3928 113.598 61.4987C115.452 64.1487 122.326 70.7674 117.837 77.8476C116.992 79.1815 114.283 78.998 113.103 77.949C111.261 76.3097 109.263 71.1591 105.177 67.5313" stroke="black" stroke-width="1.25" stroke-miterlimit="1.5" stroke-linecap="round" stroke-linejoin="round"/>
<path d="M110.694 74.7536C114.457 82.2502 109.247 84.2784 107.991 84.2044C101.504 83.8223 104.958 80.6876 100.301 72.8281" stroke="black" stroke-width="1.25" stroke-miterlimit="1.5" stroke-linecap="round" stroke-linejoin="round"/>
<path d="M103.542 81.6787C103.223 83.5425 102.516 87.1758 96.9376 86.476C94.3459 86.15 95.7924 82.1758 93.6719 77.1621" stroke="black" stroke-width="1.25" stroke-miterlimit="1.5" stroke-linecap="round" stroke-linejoin="round"/>
<path d="M95.6311 85.5781C91.7133 87.3612 87.8133 87.4803 84.7502 78.1774C83.1037 73.1788 82.2009 71.2218 83.2859 68.6855" stroke="black" stroke-width="1.25" stroke-miterlimit="1.5" stroke-linecap="round" stroke-linejoin="round"/>
<path d="M87.5191 104.852C88.3739 108.478 81.3013 110.331 79.0725 130.379C78.0081 139.96 71.1657 149.96 91.3383 152.481C94.1849 152.837 93.9081 154.554 114.052 156.567C154.318 160.594 157.507 160.798 159.237 157.719C160.319 155.796 167.812 122.467 167.864 121.169" stroke="black" stroke-width="1.25" stroke-miterlimit="1.5" stroke-linecap="round" stroke-linejoin="round"/>
<path d="M87.5391 104.877C121.79 108.616 128.91 105.677 139.034 107.517C151.505 109.784 164.693 109.569 166.049 110.247" stroke="black" stroke-width="1.25" stroke-miterlimit="1.5" stroke-linecap="round" stroke-linejoin="round"/>
<path d="M157.805 159.218C159.631 159.364 169.231 159.179 180.049 155.532C186.181 153.466 190.055 148.712 189.761 149.3" stroke="black" stroke-width="1.25" stroke-miterlimit="1.5" stroke-linecap="round" stroke-linejoin="round"/>
<path d="M190.495 137.341C190.609 132.318 189.14 119.741 188.828 119.43" stroke="black" stroke-width="1.25" stroke-miterlimit="1.5" stroke-linecap="round" stroke-linejoin="round"/>
<path fill-rule="evenodd" clip-rule="evenodd" d="M187.326 108.629C186.994 112.955 184.619 116.343 184.923 116.697C186.669 118.725 191.61 120.219 195.221 123.206C201.408 128.325 209.738 137.852 209.117 142.819C208.839 145.039 205.308 148.566 201.124 147.016C195.869 145.071 186.212 133.004 184.109 128.422C183.06 126.136 181.232 121.384 180.284 117.929C178.771 112.411 175.301 113.781 174.328 115.598C173.831 116.527 173.272 118.025 174.361 121.382C180.749 141.075 187.552 145.55 190.701 148.328C190.857 148.466 208.841 162.729 216.223 144.792C216.961 142.996 217.161 140.5 213.976 133.48C213.354 132.109 207.524 124.412 203.42 120.764C199.987 117.715 188.224 109.526 187.326 108.629Z" stroke="black" stroke-width="1.25" stroke-miterlimit="1.5" stroke-linecap="round" stroke-linejoin="round"/>
<path d="M168.818 106.02C167.599 107.238 159.355 122.966 174.435 122.108" stroke="black" stroke-width="1.25" stroke-miterlimit="1.5" stroke-linecap="round" stroke-linejoin="round"/>
<path d="M170.435 108.512C169.538 110.304 168.31 120.414 173.546 117.797" stroke="black" stroke-width="1.25" stroke-miterlimit="1.5" stroke-linecap="round" stroke-linejoin="round"/>
<path d="M181.505 120.14C181.981 120.378 181.465 119.58 185.44 114.754C187.743 111.959 189.591 102.751 183.758 98.2897C179.181 94.7879 175.77 100.784 177.551 102.142C178.936 103.198 183.117 105.036 182.144 109.918C181.443 113.446 178.606 114.2 178.936 114.732C180.987 118.029 180.498 121.305 181.351 120.025" stroke="black" stroke-width="1.25" stroke-miterlimit="1.5" stroke-linecap="round" stroke-linejoin="round"/>
<path fill-rule="evenodd" clip-rule="evenodd" d="M107.54 120.234C103.541 130.225 107.57 131.343 108.448 131.588C109.386 131.848 129.937 134.337 130.252 133.707C130.96 132.292 132.949 123.323 130.101 121.899C123.869 118.783 111.749 118.831 107.54 120.234Z" stroke="black" stroke-width="1.25" stroke-miterlimit="1.5" stroke-linecap="round" stroke-linejoin="round"/>
<path d="M83.9221 111.907C83.2783 113.195 75.4345 102.443 85.5043 98.8876C87.0413 98.3453 88.0714 97.6537 95.2783 97.981C123.033 99.2423 127.3 102.372 153.425 102.372C158.87 102.372 172.069 105.28 170.53 108.355" stroke="black" stroke-width="1.25" stroke-miterlimit="1.5" stroke-linecap="round" stroke-linejoin="round"/>
<path d="M167.901 105.337C167.1 104.336 165.295 103.997 165.667 102.508C166.012 101.128 169.058 103.065 173.277 101.8C175.169 101.232 175.497 100.71 176.837 101.667C177.26 101.968 181.93 103.757 180.974 108.345C180.4 111.096 172.64 115.222 172.015 114.183C171.478 113.287 172.166 110.887 171.817 109.318V109.164C171.786 108.979 171.654 108.182 170.622 107.151L170.511 107.041C170.052 106.658 168.806 105.281 167.79 105.028" stroke="black" stroke-width="1.25" stroke-miterlimit="1.5" stroke-linecap="round" stroke-linejoin="round"/>
<path d="M124.836 99.174C125.507 95.627 136.307 68.5975 138.428 69.0686C151.463 71.965 160.478 77.3923 163.109 79.0603C164.206 79.7547 165.961 80.8023 164.321 83.7522C162.325 87.3444 157.947 102.452 157.947 102.452" stroke="black" stroke-width="1.25" stroke-miterlimit="1.5" stroke-linecap="round" stroke-linejoin="round"/>
<path fill-rule="evenodd" clip-rule="evenodd" d="M133.204 101.102C131.03 97.5499 134.84 90.7285 140.741 91.9583C145.034 92.8526 137.875 80.9709 145.544 80.723C154.123 80.4464 153.364 87.2185 147.522 93.1456C153.192 96.5378 150.867 102.05 150.867 102.05" fill="black" stroke="black" stroke-width="1.25" stroke-miterlimit="1.5" stroke-linecap="round" stroke-linejoin="round"/>
<path d="M190.16 30.9735L190.276 30.1061L196.837 23.1384L196.851 23.03L191.505 22.3184L191.651 21.2207L198.576 22.1423L198.461 23.0097L191.927 29.9811L191.912 30.0895L197.536 30.838L197.39 31.9357L190.16 30.9735Z" fill="black"/>
<path d="M202.252 32.7137C201.561 32.6218 200.982 32.3908 200.517 32.0208C200.056 31.6468 199.726 31.1592 199.525 30.5579C199.329 29.9571 199.283 29.2682 199.387 28.4912L199.388 28.4777C199.492 27.6961 199.718 27.0411 200.064 26.5125C200.414 25.9845 200.861 25.6025 201.402 25.3665C201.949 25.1312 202.567 25.0595 203.258 25.1515C203.954 25.2441 204.533 25.4751 204.994 25.8445C205.455 26.2139 205.783 26.699 205.979 27.2997C206.18 27.9011 206.228 28.5925 206.124 29.374L206.122 29.3876C206.019 30.1646 205.792 30.8171 205.441 31.3451C205.095 31.8737 204.651 32.2583 204.108 32.4987C203.566 32.7347 202.948 32.8063 202.252 32.7137ZM202.391 31.6702C202.852 31.7315 203.257 31.6751 203.607 31.501C203.956 31.3268 204.242 31.0476 204.463 30.6632C204.689 30.2795 204.84 29.8008 204.916 29.2271L204.918 29.2135C204.995 28.6353 204.974 28.1315 204.857 27.702C204.744 27.2732 204.541 26.9313 204.249 26.6763C203.957 26.4168 203.58 26.2564 203.12 26.195C202.659 26.1337 202.254 26.1901 201.904 26.3643C201.555 26.5339 201.268 26.8106 201.042 27.1943C200.821 27.5787 200.672 28.0599 200.595 28.6382L200.593 28.6517C200.516 29.2255 200.535 29.7267 200.648 30.1555C200.765 30.585 200.97 30.9294 201.262 31.1889C201.554 31.4485 201.93 31.6089 202.391 31.6702Z" fill="black"/>
<path d="M207.494 33.2803L208.466 25.9755L209.645 26.1325L208.673 33.4372L207.494 33.2803ZM209.25 24.6454C209.028 24.616 208.847 24.5114 208.705 24.3316C208.569 24.148 208.515 23.9454 208.545 23.7241C208.575 23.4982 208.679 23.3167 208.859 23.1797C209.042 23.0432 209.245 22.9897 209.466 23.0192C209.692 23.0492 209.873 23.1538 210.011 23.333C210.148 23.5121 210.201 23.7146 210.171 23.9405C210.142 24.1619 210.037 24.3433 209.857 24.4849C209.678 24.622 209.476 24.6755 209.25 24.6454Z" fill="black"/>
<path d="M210.895 33.733L211.867 26.4282L213.046 26.5851L212.9 27.6829L213.009 27.6973C213.246 27.3335 213.552 27.0685 213.928 26.9025C214.305 26.732 214.762 26.6825 215.3 26.754C216.122 26.8634 216.721 27.1822 217.097 27.7103C217.477 28.2345 217.61 28.9303 217.495 29.7977L216.865 34.5275L215.686 34.3705L216.278 29.9254C216.365 29.2658 216.29 28.7593 216.052 28.4058C215.819 28.0484 215.412 27.8309 214.829 27.7533C214.44 27.7016 214.093 27.7404 213.786 27.8697C213.479 27.999 213.226 28.2067 213.027 28.4928C212.833 28.7796 212.707 29.1375 212.65 29.5667L212.074 33.8899L210.895 33.733Z" fill="black"/>
<path d="M219.067 34.8205L220.425 24.6156L221.605 24.7725L220.246 34.9774L219.067 34.8205ZM223.668 35.4328L221.292 31.4754L222.259 30.8386L225.152 35.6303L223.668 35.4328ZM220.447 32.3284L220.591 30.8372L220.902 30.8787L224.485 28.1074L225.914 28.2976L222 31.1834L221.678 31.4233L220.447 32.3284Z" fill="black"/>
<path d="M227.462 32.6276L228.216 26.08L229.572 26.2603L228.587 32.7773L227.462 32.6276ZM227.582 36.0779C227.307 36.0412 227.093 35.923 226.94 35.7234C226.787 35.5238 226.729 35.2862 226.766 35.0106C226.803 34.7305 226.922 34.5141 227.121 34.3614C227.321 34.2087 227.558 34.1506 227.834 34.1873C228.11 34.224 228.321 34.3418 228.47 34.5408C228.622 34.7405 228.68 34.9803 228.643 35.2604C228.606 35.536 228.488 35.7501 228.288 35.9029C228.093 36.0562 227.858 36.1145 227.582 36.0779Z" fill="black"/>
</svg>
